<?xml version="1.0" standalone="no"?>
<!DOCTYPE svg PUBLIC "-//W3C//DTD SVG 20010904//EN"
 "http://www.w3.org/TR/2001/REC-SVG-20010904/DTD/svg10.dtd">
<svg version="1.0" xmlns="http://www.w3.org/2000/svg"
 width="700.000000pt" height="700.000000pt" viewBox="0 0 700.000000 700.000000"
 preserveAspectRatio="xMidYMid meet">
<metadata>
Created by potrace 1.14, written by Peter Selinger 2001-2017
</metadata>
<g transform="translate(0.000000,700.000000) scale(0.100000,-0.100000)"
fill="#000000" stroke="none">
<path d="M5638 5846 c-1 -2 -39 -6 -83 -9 -91 -7 -214 -30 -295 -56 -198 -65
-417 -231 -559 -424 -25 -34 -48 -64 -52 -67 -3 -3 -29 -44 -58 -92 -29 -48
-57 -91 -62 -94 -11 -7 -40 11 -86 52 -106 96 -254 208 -293 222 -8 3 -22 11
-30 17 -24 21 -238 129 -330 168 -142 59 -412 141 -535 163 -16 2 -37 7 -45 9
-18 5 -162 30 -240 42 -71 10 -538 10 -610 0 -50 -7 -221 -36 -245 -41 -5 -1
-37 -8 -70 -15 -149 -31 -383 -105 -540 -171 -55 -23 -105 -42 -111 -44 -7 -1
-18 -7 -25 -12 -8 -6 -43 -25 -78 -44 -148 -75 -393 -234 -431 -279 -3 -3 -30
-26 -60 -51 -103 -84 -251 -235 -353 -361 -126 -156 -311 -454 -323 -520 -2
-9 -15 -39 -29 -68 -42 -83 -59 -154 -70 -291 -3 -36 -8 -96 -12 -135 -10 -90
-10 -402 0 -480 4 -33 9 -91 12 -130 6 -73 20 -178 36 -255 5 -25 11 -58 14
-75 26 -158 136 -512 215 -691 54 -121 163 -335 202 -394 62 -95 181 -222 318
-340 35 -30 75 -66 89 -79 46 -42 253 -186 354 -245 155 -91 491 -242 582
-261 11 -3 31 -9 45 -14 36 -14 158 -48 205 -57 22 -4 46 -8 53 -10 113 -22
177 -31 282 -38 134 -10 184 -16 215 -24 33 -9 37 -9 80 1 17 3 96 9 176 12
80 3 155 7 166 9 11 2 46 7 78 10 197 21 533 126 761 237 231 113 462 258 624
393 102 85 87 70 270 271 139 153 343 468 335 517 -5 26 -69 148 -121 230 -57
90 -114 159 -216 264 l-79 80 46 82 c25 45 50 84 56 88 17 10 59 -25 194 -160
146 -147 200 -221 279 -387 80 -167 118 -292 142 -464 4 -27 7 -161 6 -296 -1
-236 0 -248 20 -269 37 -40 104 -13 258 105 162 123 270 237 349 367 67 110
154 352 167 462 3 28 7 67 10 86 10 77 3 290 -12 380 -3 19 -7 44 -9 55 -13
91 -67 248 -121 358 -72 143 -153 246 -289 363 -204 176 -417 280 -650 317
-50 7 -57 20 -61 105 -3 61 -1 82 8 84 7 0 65 2 128 3 116 2 247 12 261 21 4
2 27 7 51 10 116 17 306 99 448 195 113 77 264 235 348 364 37 57 105 212 123
281 17 62 22 111 23 229 1 199 -9 248 -81 372 -85 146 -195 258 -320 324 -53
28 -167 67 -180 61 -2 0 -17 4 -35 9 -18 5 -71 12 -118 15 -47 3 -90 7 -97 9
-6 2 -13 2 -15 1z m147 -290 c146 -31 249 -94 331 -201 24 -32 49 -95 37 -95
-3 0 -58 20 -122 44 -187 71 -238 87 -386 116 -223 44 -326 27 -470 -73 -83
-59 -194 -171 -255 -257 -26 -36 -44 -58 -104 -125 l-37 -40 37 65 c62 111
155 240 219 306 39 40 170 142 220 171 61 36 186 80 251 89 27 3 51 8 53 10 6
5 191 -3 226 -10z m-2947 -61 c110 -7 144 -11 282 -36 145 -25 163 -29 180
-35 8 -3 26 -8 40 -11 52 -9 348 -93 385 -108 31 -14 428 -247 445 -262 3 -3
-3 -11 -13 -18 -14 -10 -26 -11 -50 -3 -18 6 -79 11 -137 12 -58 2 -134 6
-170 10 -265 29 -278 31 -345 46 -22 5 -56 12 -75 15 -19 3 -42 8 -51 11 -9 2
-70 14 -135 25 -179 30 -212 36 -294 53 -41 8 -97 18 -125 22 -27 3 -84 15
-125 26 -41 11 -104 24 -140 29 -36 4 -94 14 -130 23 -131 30 -248 43 -357 39
-251 -8 -303 -9 -298 -5 16 17 287 101 370 115 17 3 53 10 82 16 28 6 77 13
108 16 31 4 66 8 78 11 12 2 72 7 132 11 61 3 111 7 113 8 3 2 97 -2 230 -10z
m-1494 -438 c16 -39 56 -132 88 -206 46 -104 56 -136 47 -147 -21 -26 -46 -16
-53 21 -12 63 -136 302 -162 312 -12 4 -107 -47 -124 -67 -3 -3 -21 -17 -40
-30 -105 -71 -285 -245 -410 -395 -95 -114 -98 -117 -110 -113 -17 6 153 232
239 318 116 115 242 229 316 287 57 44 157 101 170 97 5 -2 23 -37 39 -77z
m481 -172 c32 -4 68 -9 80 -11 33 -7 65 -12 150 -24 44 -6 91 -13 105 -15 19
-4 336 -75 485 -110 196 -46 764 -224 852 -267 25 -12 36 -45 18 -51 -7 -3
-90 21 -186 53 -157 53 -521 162 -580 174 -13 3 -60 14 -104 26 -44 12 -91 24
-105 26 -14 3 -69 16 -122 29 -53 14 -112 27 -130 30 -18 3 -49 10 -68 15 -19
5 -48 11 -65 13 -16 3 -59 10 -95 16 -68 10 -110 16 -195 26 -108 12 -124 16
-140 41 -19 29 -13 44 18 39 12 -2 49 -6 82 -10z m2671 -167 c135 -205 222
-381 226 -458 1 -14 8 -46 15 -72 8 -25 13 -55 11 -65 -3 -10 -17 23 -32 72
-25 82 -108 254 -154 323 -10 15 -31 45 -45 67 -15 22 -38 54 -53 70 -14 17
-34 39 -43 51 -30 37 -57 46 -93 31 -37 -16 -401 -258 -435 -290 -27 -24 -29
-58 -8 -130 28 -102 25 -204 -4 -140 -24 51 -81 227 -81 249 0 37 10 52 48 76
21 12 42 26 47 31 47 40 475 316 492 316 16 1 40 -28 109 -131z m-2857 -306
c65 -101 326 -474 345 -494 12 -13 35 -40 51 -61 25 -34 27 -40 13 -53 -13
-13 -19 -10 -49 27 -19 23 -39 47 -45 53 -8 9 -81 101 -147 186 -40 51 -101
138 -157 222 -73 110 -88 117 -152 73 -20 -14 -40 -25 -43 -25 -17 0 -373
-249 -412 -288 -10 -10 -45 -40 -78 -68 -33 -27 -62 -51 -65 -54 -3 -3 -52
-46 -110 -95 -58 -49 -206 -191 -330 -315 -124 -124 -237 -234 -250 -245 l-25
-20 25 30 c14 16 27 32 30 35 3 3 18 21 34 40 26 32 190 208 381 408 44 46
132 127 195 180 63 53 126 107 140 120 38 37 165 131 260 193 123 80 138 89
210 128 36 19 78 42 93 52 38 22 57 16 86 -29z m2002 -412 c10 -6 19 -15 19
-21 0 -6 17 -41 38 -77 22 -37 63 -112 92 -167 56 -105 116 -200 208 -325 105
-142 197 -265 202 -270 3 -3 21 -25 41 -50 20 -25 49 -58 64 -75 69 -78 147
-177 142 -181 -7 -7 -207 192 -268 265 -165 199 -350 458 -469 656 -81 135
-96 155 -119 155 -21 0 -153 -91 -232 -160 -63 -55 -77 -68 -157 -142 l-43
-39 10 -52 c16 -79 22 -162 12 -151 -10 10 -60 151 -71 201 -7 30 -4 36 39 74
25 23 69 63 96 89 82 76 223 188 273 217 26 15 58 35 71 45 28 21 27 21 52 8z
m-977 -419 c56 -11 114 -23 130 -25 16 -3 36 -12 44 -19 7 -8 34 -99 58 -203
46 -194 51 -215 58 -249 3 -11 16 -69 31 -129 14 -60 23 -111 20 -114 -2 -3
-1 -10 4 -16 16 -20 31 -88 18 -83 -6 2 -23 50 -38 108 -15 57 -47 163 -72
234 -24 72 -59 190 -77 263 -28 116 -36 135 -56 142 -13 5 -125 30 -248 56
l-224 47 -59 -44 c-32 -24 -100 -78 -151 -119 l-93 -75 5 -51 c3 -28 12 -66
19 -84 14 -32 12 -80 -3 -80 -5 0 -11 14 -15 30 -4 17 -18 65 -31 108 l-25 77
93 90 c102 99 212 196 242 212 14 8 50 2 144 -23 69 -18 171 -42 226 -53z
m2596 -128 c176 -51 378 -199 499 -367 81 -112 148 -278 175 -428 18 -108 -7
-133 -29 -28 -52 249 -238 523 -447 657 -49 32 -93 58 -96 59 -4 0 -32 12 -62
26 -30 14 -82 33 -115 43 -33 9 -75 23 -92 31 -33 14 -44 39 -21 46 14 5 98
-13 188 -39z m-3519 -325 c0 -7 2 -22 5 -33 2 -11 6 -42 10 -70 3 -27 12 -88
20 -134 8 -46 14 -91 13 -100 -1 -28 -18 26 -24 77 -3 26 -12 72 -21 102 -8
30 -16 60 -17 66 -2 7 -9 19 -16 28 -11 14 -23 8 -103 -47 -49 -34 -103 -74
-118 -89 -34 -32 -79 -62 -85 -57 -2 3 23 27 57 54 33 28 79 66 102 87 135
119 175 145 177 116z"/>
</g>
</svg>
