<?xml version="1.0" encoding="UTF-8" standalone="no"?>
<!DOCTYPE svg PUBLIC "-//W3C//DTD SVG 1.1//EN" "http://www.w3.org/Graphics/SVG/1.1/DTD/svg11.dtd">
<svg xmlns="http://www.w3.org/2000/svg" version="1.1" viewBox="0.00 0.00 352.00 352.00">
<g stroke-width="2.00" fill="none" stroke-linecap="butt">
<path stroke="#03504a" vector-effect="non-scaling-stroke" d="
  M 305.29 138.81
  C 303.01 137.44 300.82 134.67 301.03 131.83
  Q 301.10 130.77 302.43 128.92
  Q 305.61 124.49 304.59 119.55"
/>
<path stroke="#117152" vector-effect="non-scaling-stroke" d="
  M 304.59 119.55
  Q 308.34 114.49 309.59 107.52"
/>
<path stroke="#24855a" vector-effect="non-scaling-stroke" d="
  M 309.59 107.52
  Q 312.14 102.20 311.15 95.79"
/>
<path stroke="#469968" vector-effect="non-scaling-stroke" d="
  M 311.15 95.79
  Q 311.75 92.03 310.76 88.03"
/>
<path stroke="#62a67a" vector-effect="non-scaling-stroke" d="
  M 310.76 88.03
  Q 310.56 86.57 309.20 85.29"
/>
<path stroke="#24855a" vector-effect="non-scaling-stroke" d="
  M 240.06 104.67
  Q 238.56 105.01 238.54 106.66
  Q 238.54 107.61 239.35 108.71
  Q 240.77 110.65 241.86 112.08"
/>
<path stroke="#03504a" vector-effect="non-scaling-stroke" d="
  M 241.86 112.08
  Q 240.28 114.79 240.70 118.10
  A 2.00 2.00 0.0 0 1 239.41 120.23
  L 231.57 123.11"
/>
<path stroke="#03504a" vector-effect="non-scaling-stroke" d="
  M 191.71 132.68
  Q 189.66 134.88 189.14 138.09
  Q 188.91 139.56 188.42 140.72
  C 187.14 143.82 182.09 144.19 179.13 143.94
  Q 176.83 143.75 176.15 141.95
  Q 175.90 141.29 176.32 140.72
  L 177.67 138.89
  Q 177.98 138.49 177.82 138.01
  Q 177.65 137.51 177.04 137.49"
/>
<path stroke="#62a67a" vector-effect="non-scaling-stroke" d="
  M 177.04 137.49
  L 177.85 136.74
  Q 178.22 136.41 178.14 135.91
  L 177.24 130.14"
/>
<path stroke="#62a67a" vector-effect="non-scaling-stroke" d="
  M 87.49 109.13
  L 90.95 115.90"
/>
<path stroke="#03504a" vector-effect="non-scaling-stroke" d="
  M 90.95 115.90
  Q 90.04 116.10 89.64 116.81
  Q 89.28 117.44 89.52 118.17
  Q 89.94 119.50 90.40 120.77
  Q 90.58 121.26 90.40 121.74
  Q 89.75 123.48 88.07 124.33
  Q 87.55 124.59 87.02 124.37
  Q 83.84 123.06 80.65 122.38
  C 78.19 121.85 75.91 120.24 75.36 117.69
  Q 75.11 116.54 74.62 115.71"
/>
<path stroke="#24855a" vector-effect="non-scaling-stroke" d="
  M 28.73 129.27
  Q 28.19 129.86 28.60 130.24
  Q 28.49 131.09 27.93 131.17
  Q 27.47 131.23 27.15 131.56
  L 26.82 131.92"
/>
<path stroke="#03504a" vector-effect="non-scaling-stroke" d="
  M 26.82 131.92
  L 26.58 130.94
  Q 26.37 130.07 25.50 130.32
  Q 18.38 132.42 11.99 134.11
  Q 10.93 134.39 9.83 134.19
  Q 9.35 134.11 9.16 134.55
  Q 8.13 136.94 6.49 138.45"
/>
<path stroke="#067065" vector-effect="non-scaling-stroke" d="
  M 69.50 75.47
  Q 77.66 78.68 86.07 80.08
  C 88.53 80.49 90.42 79.92 92.75 79.32
  Q 95.41 78.63 96.80 80.33"
/>
<path stroke="#62a67a" vector-effect="non-scaling-stroke" d="
  M 85.97 84.22
  Q 82.47 83.84 78.99 86.04
  Q 78.56 86.31 78.68 86.81
  Q 79.34 89.64 81.39 91.98"
/>
<path stroke="#055645" vector-effect="non-scaling-stroke" d="
  M 81.39 91.98
  Q 79.73 92.38 81.77 93.96
  Q 82.50 94.52 83.35 94.66
  C 86.17 95.14 88.69 95.76 91.62 95.96
  Q 96.57 96.30 101.70 97.01
  C 104.63 97.42 107.63 96.52 110.51 97.42
  Q 112.24 97.96 114.15 98.27
  C 117.11 98.75 119.80 100.25 122.45 100.80
  Q 132.48 102.87 142.51 105.65
  Q 144.18 106.11 146.68 106.25
  Q 149.06 106.39 151.03 107.51
  Q 153.66 109.00 156.82 108.60
  Q 157.35 108.53 157.66 108.99
  Q 157.93 109.38 158.40 109.44
  Q 159.80 109.61 161.07 110.24
  Q 162.48 110.94 163.90 111.19
  Q 165.25 111.43 166.74 111.61
  Q 166.95 111.64 167.02 111.84
  Q 167.10 112.08 167.36 112.11
  Q 169.93 112.46 172.30 113.70
  Q 175.74 115.51 176.90 115.93
  Q 179.33 116.80 181.69 117.97
  A 4.04 4.03 -48.1 0 0 185.67 117.75
  C 188.63 115.83 191.01 113.30 194.06 111.40
  Q 200.68 107.26 207.34 102.54
  A 0.98 0.98 0.0 0 0 207.48 101.06
  L 207.06 100.62"
/>
<path stroke="#62a67a" vector-effect="non-scaling-stroke" d="
  M 207.06 100.62
  Q 207.59 100.34 207.70 99.84"
/>
<path stroke="#067065" vector-effect="non-scaling-stroke" d="
  M 192.80 88.12
  Q 195.55 87.89 198.38 88.60
  Q 202.57 89.65 203.77 89.69
  Q 210.40 89.91 216.65 86.81"
/>
<path stroke="#a4de89" vector-effect="non-scaling-stroke" d="
  M 310.76 88.03
  L 310.65 91.52
  Q 310.61 92.88 309.24 92.85
  Q 302.34 92.67 296.48 89.26"
/>
<path stroke="#61926a" vector-effect="non-scaling-stroke" d="
  M 296.48 89.26
  Q 294.27 86.58 290.50 86.26
  Q 287.04 85.97 285.24 89.28"
/>
<path stroke="#a4de89" vector-effect="non-scaling-stroke" d="
  M 285.24 89.28
  Q 276.90 88.90 267.74 85.29
  Q 265.33 84.34 258.62 84.47"
/>
<path stroke="#639b66" vector-effect="non-scaling-stroke" d="
  M 207.06 100.62
  Q 201.67 103.94 196.20 107.07
  C 191.75 109.62 188.09 112.65 184.11 115.62
  A 2.34 2.34 0.0 0 1 181.78 115.91
  Q 174.85 112.99 167.39 110.31
  C 160.78 107.93 154.35 106.74 147.83 104.84
  Q 128.92 99.34 114.67 96.91
  Q 110.00 96.11 105.34 95.28
  C 97.31 93.87 89.39 93.30 81.39 91.98"
/>
<path stroke="#458557" vector-effect="non-scaling-stroke" d="
  M 285.24 89.28
  Q 283.48 91.64 283.91 95.10
  Q 284.34 98.57 286.43 99.91
  C 289.75 102.04 293.99 101.64 296.37 98.33
  Q 299.11 94.50 296.48 89.26"
/>
<path stroke="#66bd68" vector-effect="non-scaling-stroke" d="
  M 311.15 95.79
  L 310.51 101.03
  A 1.38 1.34 77.3 0 1 309.92 101.99
  Q 301.23 107.76 290.42 108.20
  C 281.69 108.56 274.40 108.41 266.47 106.04
  Q 264.16 105.35 259.28 102.89
  Q 252.90 99.67 245.56 98.64"
/>
<path stroke="#309553" vector-effect="non-scaling-stroke" d="
  M 309.59 107.52
  Q 299.32 113.47 289.32 119.25
  Q 281.53 123.76 274.51 125.22
  Q 266.62 126.88 255.75 126.98
  Q 253.13 127.01 250.39 126.56"
/>
<path stroke="#22744a" vector-effect="non-scaling-stroke" d="
  M 250.39 126.56
  C 247.70 121.53 245.63 116.72 241.86 112.08"
/>
<path stroke="#458858" vector-effect="non-scaling-stroke" d="
  M 72.31 116.58
  L 54.80 127.35"
/>
<path stroke="#66bd68" vector-effect="non-scaling-stroke" d="
  M 54.80 127.35
  L 45.10 112.14"
/>
<path stroke="#0f6043" vector-effect="non-scaling-stroke" d="
  M 304.59 119.55
  Q 299.03 126.97 290.91 131.39
  Q 283.96 135.17 278.85 136.55
  Q 268.20 139.43 254.64 137.16
  C 253.44 136.96 252.68 135.87 252.41 134.77
  Q 251.39 130.67 250.39 126.56"
/>
<path stroke="#61956b" vector-effect="non-scaling-stroke" d="
  M 177.04 137.49
  L 173.33 140.07"
/>
<path stroke="#a4de89" vector-effect="non-scaling-stroke" d="
  M 173.33 140.07
  Q 162.99 140.16 152.64 137.85
  Q 146.26 136.42 141.76 135.83
  C 132.94 134.67 125.07 131.94 116.69 129.07
  Q 111.65 127.34 104.77 124.12
  Q 98.95 121.39 92.53 118.91"
/>
<path stroke="#61956b" vector-effect="non-scaling-stroke" d="
  M 92.53 118.91
  L 90.95 115.90"
/>
<path stroke="#22744a" vector-effect="non-scaling-stroke" d="
  M 54.80 127.35
  Q 40.39 137.03 33.34 143.84
  Q 23.98 152.88 14.44 162.18
  Q 13.19 163.40 13.64 161.71
  Q 15.01 156.54 17.39 151.35
  Q 21.89 141.51 26.82 131.92"
/>
<path stroke="#013432" vector-effect="non-scaling-stroke" d="
  M 310.34 251.17
  Q 310.27 247.55 311.88 244.47
  A 1.34 1.34 0.0 0 0 311.08 242.57
  Q 309.69 242.15 308.34 241.51
  C 305.86 240.34 303.90 237.95 301.81 236.19
  A 1.10 1.07 62.2 0 0 301.01 235.93
  Q 300.09 236.01 299.35 236.87"
/>
<path stroke="#0f6043" vector-effect="non-scaling-stroke" d="
  M 299.35 236.87
  L 299.30 228.69"
/>
<path stroke="#347f50" vector-effect="non-scaling-stroke" d="
  M 299.30 228.69
  Q 300.04 225.70 299.02 222.49"
/>
<path stroke="#347f50" vector-effect="non-scaling-stroke" d="
  M 254.45 177.00
  Q 253.74 177.13 253.76 177.75
  Q 253.90 180.99 252.97 184.29"
/>
<path stroke="#0f6043" vector-effect="non-scaling-stroke" d="
  M 252.97 184.29
  L 249.98 195.09
  Q 249.85 195.58 250.23 195.90
  Q 257.62 202.14 259.52 203.99
  Q 264.26 208.61 269.63 215.57"
/>
<path stroke="#013432" vector-effect="non-scaling-stroke" d="
  M 269.63 215.57
  Q 266.89 223.70 261.17 227.63"
/>
<path stroke="#2c8e7e" vector-effect="non-scaling-stroke" d="
  M 236.73 217.47
  Q 223.78 232.94 208.25 245.76"
/>
<path stroke="#013432" vector-effect="non-scaling-stroke" d="
  M 208.25 245.76
  Q 204.61 241.58 202.88 236.77
  Q 202.25 235.00 199.64 233.70"
/>
<path stroke="#034536" vector-effect="non-scaling-stroke" d="
  M 199.64 233.70
  Q 213.36 224.37 223.40 211.58
  A 0.89 0.86 -83.0 0 1 223.72 211.32
  L 224.48 210.96
  Q 225.15 210.64 224.64 210.10
  L 223.78 209.19"
/>
<path stroke="#347f50" vector-effect="non-scaling-stroke" d="
  M 160.22 183.70
  L 163.89 198.93
  A 1.20 1.04 -74.6 0 0 164.10 199.37
  L 164.43 199.79"
/>
<path stroke="#0f6043" vector-effect="non-scaling-stroke" d="
  M 164.43 199.79
  L 168.51 220.60"
/>
<path stroke="#013432" vector-effect="non-scaling-stroke" d="
  M 168.51 220.60
  Q 164.77 222.50 161.33 224.57
  C 159.44 225.71 157.69 225.98 155.59 226.44"
/>
<path stroke="#0f6043" vector-effect="non-scaling-stroke" d="
  M 155.59 226.44
  L 154.29 220.98"
/>
<path stroke="#22744a" vector-effect="non-scaling-stroke" d="
  M 154.29 220.98
  Q 153.82 216.86 153.38 214.87
  Q 153.28 214.43 152.79 214.13"
/>
<path stroke="#0f6043" vector-effect="non-scaling-stroke" d="
  M 152.76 213.76
  Q 153.04 213.04 152.78 211.99
  Q 152.35 210.24 151.40 208.92"
/>
<path stroke="#013432" vector-effect="non-scaling-stroke" d="
  M 98.57 183.20
  Q 96.29 181.46 91.50 180.77
  Q 87.23 180.15 84.52 176.68"
/>
<path stroke="#22744a" vector-effect="non-scaling-stroke" d="
  M 84.52 176.68
  L 97.00 165.92"
/>
<path stroke="#458858" vector-effect="non-scaling-stroke" d="
  M 97.00 165.92
  L 102.34 161.50"
/>
<path stroke="#013432" vector-effect="non-scaling-stroke" d="
  M 17.23 179.01
  Q 13.16 176.26 7.74 175.96
  Q 3.78 175.74 0.00 174.60"
/>
<path stroke="#458858" vector-effect="non-scaling-stroke" d="
  M 92.53 118.91
  Q 96.04 126.71 100.44 133.16
  C 104.77 139.50 110.56 147.20 115.11 152.21
  Q 116.37 153.59 117.99 153.98
  Q 131.31 157.15 145.52 160.43
  A 3.01 3.00 -57.6 0 0 148.05 159.86
  L 173.33 140.07"
/>
<path stroke="#458858" vector-effect="non-scaling-stroke" d="
  M 196.18 143.70
  Q 198.28 151.58 203.55 159.30"
/>
<path stroke="#22744a" vector-effect="non-scaling-stroke" d="
  M 203.55 159.30
  Q 215.66 179.96 232.88 196.68
  A 0.71 0.70 -59.4 0 0 234.04 196.38
  C 235.00 193.25 236.18 190.43 236.98 187.15
  Q 240.65 172.02 241.28 166.99
  Q 242.31 158.67 239.73 146.76"
/>
<path stroke="#458858" vector-effect="non-scaling-stroke" d="
  M 239.73 146.76
  L 239.73 146.25"
/>
<path stroke="#0f6043" vector-effect="non-scaling-stroke" d="
  M 239.73 146.25
  Q 239.42 142.06 237.71 138.33"
/>
<path stroke="#53a961" vector-effect="non-scaling-stroke" d="
  M 239.30 145.69
  Q 239.46 145.61 239.73 146.25"
/>
<path stroke="#66bd68" vector-effect="non-scaling-stroke" d="
  M 239.73 146.76
  L 239.73 147.54
  Q 239.73 148.23 239.17 147.83
  Q 239.00 147.70 238.85 147.60
  Q 238.57 147.39 238.45 147.06
  Q 237.76 145.20 236.84 143.61
  A 0.81 0.80 -20.9 0 0 235.98 143.23
  Q 232.12 144.06 229.79 145.70
  C 221.36 151.65 212.58 154.95 203.55 159.30"
/>
<path stroke="#66bd68" vector-effect="non-scaling-stroke" d="
  M 97.00 165.92
  Q 91.19 164.18 86.02 162.17
  Q 78.62 159.29 71.20 156.41
  Q 66.28 154.49 62.61 152.03
  Q 58.64 149.36 54.77 146.33"
/>
<path stroke="#226942" vector-effect="non-scaling-stroke" d="
  M 84.52 176.68
  L 75.23 184.42"
/>
<path stroke="#309553" vector-effect="non-scaling-stroke" d="
  M 75.23 184.42
  Q 69.70 181.83 64.25 179.28
  C 60.10 177.34 54.52 175.95 50.06 173.44
  Q 43.27 169.63 34.37 163.69"
/>
<path stroke="#42a058" vector-effect="non-scaling-stroke" d="
  M 205.90 190.97
  Q 198.51 192.48 192.11 195.97
  C 191.07 196.54 188.97 197.05 187.80 197.15
  Q 176.26 198.05 165.48 199.76
  Q 164.99 199.84 164.43 199.79"
/>
<path stroke="#0f553a" vector-effect="non-scaling-stroke" d="
  M 75.23 184.42
  Q 64.62 194.51 53.22 203.95
  Q 51.02 205.77 47.59 209.67"
/>
<path stroke="#11663e" vector-effect="non-scaling-stroke" d="
  M 47.59 209.67
  Q 35.96 201.03 29.31 193.21
  Q 25.24 188.43 19.59 178.65"
/>
<path stroke="#55b460" vector-effect="non-scaling-stroke" d="
  M 145.00 192.27
  Q 140.24 191.22 135.46 190.59
  Q 129.24 189.77 126.25 188.53
  C 121.39 186.51 117.89 184.07 114.17 180.06
  Q 112.26 178.00 110.05 176.06"
/>
<path stroke="#0f553a" vector-effect="non-scaling-stroke" d="
  M 9.50 187.96
  Q 8.06 188.92 7.43 190.50"
/>
<path stroke="#033a2d" vector-effect="non-scaling-stroke" d="
  M 7.43 190.50
  Q 16.41 205.06 27.96 217.79
  Q 30.05 220.08 32.35 222.12
  A 1.02 1.02 0.0 0 0 33.71 222.12
  L 47.59 209.67"
/>
<path stroke="#226942" vector-effect="non-scaling-stroke" d="
  M 102.00 194.62
  L 103.64 204.73"
/>
<path stroke="#0f553a" vector-effect="non-scaling-stroke" d="
  M 103.64 204.73
  Q 104.94 212.92 105.24 218.25
  Q 105.65 225.60 105.56 236.06"
/>
<path stroke="#033a2d" vector-effect="non-scaling-stroke" d="
  M 105.56 236.06
  L 104.22 253.84
  A 1.40 1.39 -84.7 0 0 105.45 255.33
  Q 120.99 257.18 136.51 256.26
  C 144.00 255.82 151.60 254.17 159.24 252.58
  A 0.84 0.83 -10.4 0 0 159.90 251.63
  L 157.92 238.97"
/>
<path stroke="#0f553a" vector-effect="non-scaling-stroke" d="
  M 157.92 238.97
  L 155.59 226.44"
/>
<path stroke="#0f553a" vector-effect="non-scaling-stroke" d="
  M 168.51 220.60
  L 170.40 228.64"
/>
<path stroke="#033a2d" vector-effect="non-scaling-stroke" d="
  M 170.40 228.64
  L 174.14 246.87
  Q 174.45 248.37 175.85 247.75
  Q 185.55 243.46 195.07 237.08
  Q 198.74 234.62 199.64 233.70"
/>
<path stroke="#2c8376" vector-effect="non-scaling-stroke" d="
  M 208.25 245.76
  L 190.07 256.48"
/>
<path stroke="#137a76" vector-effect="non-scaling-stroke" d="
  M 190.07 256.48
  Q 177.86 262.20 164.72 266.51"
/>
<path stroke="#0a6364" vector-effect="non-scaling-stroke" d="
  M 164.72 266.51
  Q 139.97 273.52 113.26 271.36
  Q 86.57 269.21 64.12 259.08
  Q 54.90 254.93 46.39 249.98
  Q 31.32 241.23 18.83 228.56
  Q 15.44 225.13 17.72 229.38
  Q 18.35 230.57 20.24 233.36"
/>
<path stroke="#023131" vector-effect="non-scaling-stroke" d="
  M 20.24 233.36
  L 17.88 252.90"
/>
<path stroke="#0f553a" vector-effect="non-scaling-stroke" d="
  M 69.91 207.98
  L 58.93 217.48"
/>
<path stroke="#033a2d" vector-effect="non-scaling-stroke" d="
  M 58.93 217.48
  L 45.11 229.45
  A 0.75 0.75 0.0 0 0 45.15 230.62
  Q 57.21 239.55 70.47 245.43
  C 75.89 247.83 81.63 249.39 87.24 251.22
  Q 89.97 252.11 90.21 249.25
  L 91.54 233.29"
/>
<path stroke="#0f553a" vector-effect="non-scaling-stroke" d="
  M 91.54 233.29
  Q 91.08 222.64 90.87 212.19
  Q 90.79 208.51 88.80 202.28"
/>
<path stroke="#11663e" vector-effect="non-scaling-stroke" d="
  M 91.54 233.29
  L 91.17 233.32
  Q 90.84 233.36 90.63 233.09
  Q 89.38 231.50 87.77 231.00
  Q 77.66 227.85 70.13 224.37
  Q 64.26 221.66 58.93 217.48"
/>
<path stroke="#309553" vector-effect="non-scaling-stroke" d="
  M 154.29 220.98
  Q 152.25 219.24 152.13 216.07
  Q 152.11 215.53 151.70 215.18
  C 150.61 214.23 148.76 214.82 147.32 214.75
  Q 134.42 214.11 126.91 212.80
  Q 123.54 212.21 119.76 210.85
  Q 118.85 210.53 112.12 208.46
  Q 107.84 207.15 103.64 204.73"
/>
<path stroke="#42a058" vector-effect="non-scaling-stroke" d="
  M 299.30 228.69
  Q 290.70 223.65 287.37 217.37
  C 284.37 211.70 282.02 207.09 276.71 202.30
  Q 265.59 192.27 252.97 184.29"
/>
<path stroke="#11663e" vector-effect="non-scaling-stroke" d="
  M 7.43 190.50
  Q 10.01 190.55 10.01 187.99"
/>
<path stroke="#0f553a" vector-effect="non-scaling-stroke" d="
  M 299.35 236.87
  Q 297.59 250.39 289.90 261.88
  Q 289.03 263.18 287.68 264.04
  A 0.47 0.47 0.0 0 1 286.96 263.65
  Q 286.88 258.02 286.21 252.24
  Q 283.88 232.04 269.63 215.57"
/>
<path stroke="#11663e" vector-effect="non-scaling-stroke" d="
  M 214.78 201.61
  Q 212.72 201.61 211.81 202.56
  Q 198.98 215.98 184.52 223.53
  Q 179.56 226.12 170.40 228.64"
/>
<path stroke="#11663e" vector-effect="non-scaling-stroke" d="
  M 157.92 238.97
  Q 156.62 239.03 156.56 236.42
  A 1.87 1.86 -4.4 0 0 154.45 234.62
  C 149.39 235.29 144.49 236.90 139.59 237.21
  Q 127.59 238.00 115.25 237.08
  Q 110.68 236.74 105.56 236.06"
/>
<path stroke="#36c7b6" vector-effect="non-scaling-stroke" d="
  M 248.94 230.74
  Q 242.16 238.08 235.81 245.55
  Q 233.14 248.68 228.15 252.06"
/>
<path stroke="#3ed4c3" vector-effect="non-scaling-stroke" d="
  M 228.15 252.06
  Q 213.25 250.59 205.48 251.95
  Q 203.15 252.36 195.27 256.15
  Q 193.00 257.24 190.07 256.48"
/>
<path stroke="#1cb4b1" vector-effect="non-scaling-stroke" d="
  M 164.72 266.51
  Q 163.87 267.87 162.46 268.77
  Q 162.03 269.04 161.89 269.52
  Q 161.36 271.22 162.69 272.34
  Q 166.73 275.72 171.75 279.28
  Q 173.85 280.77 177.43 279.90"
/>
<path stroke="#14a7a5" vector-effect="non-scaling-stroke" d="
  M 177.43 279.90
  Q 177.21 280.35 177.16 280.35"
/>
<path stroke="#0d878a" vector-effect="non-scaling-stroke" d="
  M 177.16 280.35
  Q 170.33 281.78 163.73 283.17
  C 151.95 285.63 141.26 286.02 129.28 285.63
  Q 119.24 285.31 109.45 283.28
  Q 80.19 277.22 54.37 262.27
  C 46.70 257.84 40.08 252.24 32.69 247.52
  Q 30.50 246.12 28.24 244.37"
/>
<path stroke="#0b6b6c" vector-effect="non-scaling-stroke" d="
  M 28.24 244.37
  L 20.24 233.36"
/>
<path stroke="#0e908f" vector-effect="non-scaling-stroke" d="
  M 231.71 282.15
  Q 226.60 278.93 221.29 276.22
  C 219.34 275.22 217.05 275.13 215.29 276.61
  Q 206.42 284.08 194.92 289.53
  Q 193.91 290.02 192.94 289.46
  C 189.12 287.27 184.93 285.75 181.25 283.27
  Q 179.13 281.83 177.16 280.35"
/>
<path stroke="#1dbeb7" vector-effect="non-scaling-stroke" d="
  M 177.43 279.90
  Q 188.69 276.03 193.42 274.15
  Q 212.67 266.49 228.15 252.06"
/>
<path stroke="#055456" vector-effect="non-scaling-stroke" d="
  M 28.24 244.37
  Q 45.21 270.52 71.29 286.35
  Q 79.63 291.40 89.34 294.83
  Q 107.45 301.22 126.37 303.11"
/>
<path stroke="#024547" vector-effect="non-scaling-stroke" d="
  M 126.37 303.11
  Q 129.66 310.95 135.39 317.09
  Q 135.73 317.45 135.77 317.96
  Q 135.83 318.93 136.15 319.29"
/>
<path stroke="#056165" vector-effect="non-scaling-stroke" d="
  M 196.37 305.54
  Q 190.17 301.85 183.59 299.24
  C 182.33 298.74 181.25 297.97 180.39 297.08
  A 2.11 2.09 59.4 0 0 178.29 296.53
  C 171.74 298.47 165.46 300.44 158.61 301.54
  C 148.29 303.20 139.14 303.17 126.37 303.11"
/>
</g>
<path fill="#046159" d="
  M 305.29 138.81
  C 303.01 137.44 300.82 134.67 301.03 131.83
  Q 301.10 130.77 302.43 128.92
  Q 305.61 124.49 304.59 119.55
  Q 308.34 114.49 309.59 107.52
  Q 312.14 102.20 311.15 95.79
  Q 311.75 92.03 310.76 88.03
  Q 310.56 86.57 309.20 85.29
  Q 304.35 76.80 295.76 73.97
  Q 280.39 68.90 264.88 76.63
  C 261.86 78.13 259.67 80.39 257.01 82.38
  Q 254.14 84.54 251.66 87.35
  Q 246.48 93.24 242.12 101.04
  Q 241.19 102.72 240.06 104.67
  Q 238.56 105.01 238.54 106.66
  Q 238.54 107.61 239.35 108.71
  Q 240.77 110.65 241.86 112.08
  Q 240.28 114.79 240.70 118.10
  A 2.00 2.00 0.0 0 1 239.41 120.23
  L 231.57 123.11
  L 222.10 108.78
  A 1.91 1.90 56.5 0 0 219.47 108.24
  Q 206.46 116.86 192.53 126.25
  Q 190.65 127.52 191.04 129.48
  Q 191.41 131.39 191.71 132.68
  Q 189.66 134.88 189.14 138.09
  Q 188.91 139.56 188.42 140.72
  C 187.14 143.82 182.09 144.19 179.13 143.94
  Q 176.83 143.75 176.15 141.95
  Q 175.90 141.29 176.32 140.72
  L 177.67 138.89
  Q 177.98 138.49 177.82 138.01
  Q 177.65 137.51 177.04 137.49
  L 177.85 136.74
  Q 178.22 136.41 178.14 135.91
  L 177.24 130.14
  Q 177.18 128.23 176.14 127.85
  Q 147.85 117.37 119.95 111.34
  Q 115.81 110.45 111.70 109.47
  C 108.66 108.75 105.73 108.44 102.67 108.03
  C 97.34 107.32 92.25 106.08 86.80 105.75
  A 0.70 0.69 -13.2 0 0 86.15 106.79
  L 87.49 109.13
  L 90.95 115.90
  Q 90.04 116.10 89.64 116.81
  Q 89.28 117.44 89.52 118.17
  Q 89.94 119.50 90.40 120.77
  Q 90.58 121.26 90.40 121.74
  Q 89.75 123.48 88.07 124.33
  Q 87.55 124.59 87.02 124.37
  Q 83.84 123.06 80.65 122.38
  C 78.19 121.85 75.91 120.24 75.36 117.69
  Q 75.11 116.54 74.62 115.71
  C 74.70 115.00 74.85 114.47 74.54 113.78
  Q 70.09 104.08 66.32 94.60
  A 1.32 1.32 0.0 0 0 64.46 93.94
  Q 57.99 97.52 52.48 102.49
  Q 46.44 107.94 40.55 113.55
  Q 35.96 117.92 28.73 129.27
  Q 28.19 129.86 28.60 130.24
  Q 28.49 131.09 27.93 131.17
  Q 27.47 131.23 27.15 131.56
  L 26.82 131.92
  L 26.58 130.94
  Q 26.37 130.07 25.50 130.32
  Q 18.38 132.42 11.99 134.11
  Q 10.93 134.39 9.83 134.19
  Q 9.35 134.11 9.16 134.55
  Q 8.13 136.94 6.49 138.45
  L 8.08 133.95
  Q 8.24 133.49 8.61 133.16
  Q 9.13 132.70 9.34 132.32
  Q 20.49 112.34 36.84 97.38
  Q 39.73 94.73 46.43 89.38
  Q 51.18 85.60 56.66 82.46
  Q 63.18 78.73 69.50 75.47
  Q 77.66 78.68 86.07 80.08
  C 88.53 80.49 90.42 79.92 92.75 79.32
  Q 95.41 78.63 96.80 80.33
  L 85.97 84.22
  Q 82.47 83.84 78.99 86.04
  Q 78.56 86.31 78.68 86.81
  Q 79.34 89.64 81.39 91.98
  Q 79.73 92.38 81.77 93.96
  Q 82.50 94.52 83.35 94.66
  C 86.17 95.14 88.69 95.76 91.62 95.96
  Q 96.57 96.30 101.70 97.01
  C 104.63 97.42 107.63 96.52 110.51 97.42
  Q 112.24 97.96 114.15 98.27
  C 117.11 98.75 119.80 100.25 122.45 100.80
  Q 132.48 102.87 142.51 105.65
  Q 144.18 106.11 146.68 106.25
  Q 149.06 106.39 151.03 107.51
  Q 153.66 109.00 156.82 108.60
  Q 157.35 108.53 157.66 108.99
  Q 157.93 109.38 158.40 109.44
  Q 159.80 109.61 161.07 110.24
  Q 162.48 110.94 163.90 111.19
  Q 165.25 111.43 166.74 111.61
  Q 166.95 111.64 167.02 111.84
  Q 167.10 112.08 167.36 112.11
  Q 169.93 112.46 172.30 113.70
  Q 175.74 115.51 176.90 115.93
  Q 179.33 116.80 181.69 117.97
  A 4.04 4.03 -48.1 0 0 185.67 117.75
  C 188.63 115.83 191.01 113.30 194.06 111.40
  Q 200.68 107.26 207.34 102.54
  A 0.98 0.98 0.0 0 0 207.48 101.06
  L 207.06 100.62
  Q 207.59 100.34 207.70 99.84
  Q 208.81 99.76 209.53 99.06
  Q 209.99 98.62 209.45 98.29
  L 192.80 88.12
  Q 195.55 87.89 198.38 88.60
  Q 202.57 89.65 203.77 89.69
  Q 210.40 89.91 216.65 86.81
  L 226.41 95.25
  A 1.19 1.18 -49.2 0 0 228.09 95.12
  C 229.67 93.25 230.43 90.87 231.89 88.81
  Q 233.88 86.01 235.74 83.40
  C 242.69 73.62 251.88 66.37 263.22 61.70
  C 266.03 60.55 269.08 60.07 272.09 59.43
  Q 284.37 56.85 297.37 59.72
  Q 304.81 61.36 309.34 64.76
  Q 318.78 71.85 323.70 82.06
  C 326.71 88.31 326.62 96.40 326.02 103.31
  C 325.17 113.12 319.76 123.31 313.47 130.47
  Q 310.58 133.76 305.29 138.81
  Z"
/>
<path fill="#087f71" d="
  M 216.65 86.81
  Q 210.40 89.91 203.77 89.69
  Q 202.57 89.65 198.38 88.60
  Q 195.55 87.89 192.80 88.12
  Q 187.94 85.38 186.51 84.91
  Q 180.99 83.09 168.78 79.97
  Q 158.82 77.43 151.06 76.45
  Q 141.08 75.19 133.00 75.24
  Q 115.90 75.35 96.80 80.33
  Q 95.41 78.63 92.75 79.32
  C 90.42 79.92 88.53 80.49 86.07 80.08
  Q 77.66 78.68 69.50 75.47
  Q 94.92 63.96 122.00 61.19
  Q 128.19 60.55 142.75 61.04
  Q 154.12 61.42 172.99 66.34
  Q 196.57 72.48 216.65 86.81
  Z"
/>
<path fill="#c0eb9b" d="
  M 309.20 85.29
  Q 310.56 86.57 310.76 88.03
  L 310.65 91.52
  Q 310.61 92.88 309.24 92.85
  Q 302.34 92.67 296.48 89.26
  Q 294.27 86.58 290.50 86.26
  Q 287.04 85.97 285.24 89.28
  Q 276.90 88.90 267.74 85.29
  Q 265.33 84.34 258.62 84.47
  Q 268.71 75.92 281.22 78.87
  Q 284.27 79.58 286.90 80.02
  Q 289.70 80.48 292.52 81.41
  Q 300.97 84.19 309.29 87.60
  Q 309.83 87.82 309.69 87.25
  L 309.20 85.29
  Z"
/>
<path fill="#c0eb9b" d="
  M 207.70 99.84
  Q 207.59 100.34 207.06 100.62
  Q 201.67 103.94 196.20 107.07
  C 191.75 109.62 188.09 112.65 184.11 115.62
  A 2.34 2.34 0.0 0 1 181.78 115.91
  Q 174.85 112.99 167.39 110.31
  C 160.78 107.93 154.35 106.74 147.83 104.84
  Q 128.92 99.34 114.67 96.91
  Q 110.00 96.11 105.34 95.28
  C 97.31 93.87 89.39 93.30 81.39 91.98
  Q 79.34 89.64 78.68 86.81
  Q 78.56 86.31 78.99 86.04
  Q 82.47 83.84 85.97 84.22
  Q 91.82 84.45 97.55 83.99
  Q 103.83 83.50 107.47 83.85
  Q 115.15 84.61 122.43 86.35
  Q 125.08 86.99 127.78 87.11
  C 130.48 87.23 132.71 88.69 135.36 89.05
  Q 140.54 89.77 145.99 90.87
  Q 151.91 92.08 156.57 92.81
  Q 164.51 94.06 171.99 95.73
  Q 177.29 96.92 182.10 97.37
  Q 187.26 97.85 192.38 98.51
  C 196.32 99.02 200.02 98.86 203.90 98.74
  Q 204.45 98.73 204.93 99.00
  Q 206.25 99.77 207.70 99.84
  Z"
/>
<path fill="#88d176" d="
  M 258.62 84.47
  Q 265.33 84.34 267.74 85.29
  Q 276.90 88.90 285.24 89.28
  Q 283.48 91.64 283.91 95.10
  Q 284.34 98.57 286.43 99.91
  C 289.75 102.04 293.99 101.64 296.37 98.33
  Q 299.11 94.50 296.48 89.26
  Q 302.34 92.67 309.24 92.85
  Q 310.61 92.88 310.65 91.52
  L 310.76 88.03
  Q 311.75 92.03 311.15 95.79
  L 310.51 101.03
  A 1.38 1.34 77.3 0 1 309.92 101.99
  Q 301.23 107.76 290.42 108.20
  C 281.69 108.56 274.40 108.41 266.47 106.04
  Q 264.16 105.35 259.28 102.89
  Q 252.90 99.67 245.56 98.64
  Q 251.24 90.00 258.62 84.47
  Z"
/>
<path fill="#023838" d="
  M 296.48 89.26
  Q 299.11 94.50 296.37 98.33
  C 293.99 101.64 289.75 102.04 286.43 99.91
  Q 284.34 98.57 283.91 95.10
  Q 283.48 91.64 285.24 89.28
  Q 287.04 85.97 290.50 86.26
  Q 294.27 86.58 296.48 89.26
  Z"
/>
<path fill="#054b31" d="
  M 81.39 91.98
  C 89.39 93.30 97.31 93.87 105.34 95.28
  Q 110.00 96.11 114.67 96.91
  Q 128.92 99.34 147.83 104.84
  C 154.35 106.74 160.78 107.93 167.39 110.31
  Q 174.85 112.99 181.78 115.91
  A 2.34 2.34 0.0 0 0 184.11 115.62
  C 188.09 112.65 191.75 109.62 196.20 107.07
  Q 201.67 103.94 207.06 100.62
  L 207.48 101.06
  A 0.98 0.98 0.0 0 1 207.34 102.54
  Q 200.68 107.26 194.06 111.40
  C 191.01 113.30 188.63 115.83 185.67 117.75
  A 4.04 4.03 -48.1 0 1 181.69 117.97
  Q 179.33 116.80 176.90 115.93
  Q 175.74 115.51 172.30 113.70
  Q 169.93 112.46 167.36 112.11
  Q 167.10 112.08 167.02 111.84
  Q 166.95 111.64 166.74 111.61
  Q 165.25 111.43 163.90 111.19
  Q 162.48 110.94 161.07 110.24
  Q 159.80 109.61 158.40 109.44
  Q 157.93 109.38 157.66 108.99
  Q 157.35 108.53 156.82 108.60
  Q 153.66 109.00 151.03 107.51
  Q 149.06 106.39 146.68 106.25
  Q 144.18 106.11 142.51 105.65
  Q 132.48 102.87 122.45 100.80
  C 119.80 100.25 117.11 98.75 114.15 98.27
  Q 112.24 97.96 110.51 97.42
  C 107.63 96.52 104.63 97.42 101.70 97.01
  Q 96.57 96.30 91.62 95.96
  C 88.69 95.76 86.17 95.14 83.35 94.66
  Q 82.50 94.52 81.77 93.96
  Q 79.73 92.38 81.39 91.98
  Z"
/>
<path fill="#43a85a" d="
  M 311.15 95.79
  Q 312.14 102.20 309.59 107.52
  Q 299.32 113.47 289.32 119.25
  Q 281.53 123.76 274.51 125.22
  Q 266.62 126.88 255.75 126.98
  Q 253.13 127.01 250.39 126.56
  C 247.70 121.53 245.63 116.72 241.86 112.08
  Q 240.77 110.65 239.35 108.71
  Q 238.54 107.61 238.54 106.66
  Q 238.56 105.01 240.06 104.67
  L 245.56 98.64
  Q 252.90 99.67 259.28 102.89
  Q 264.16 105.35 266.47 106.04
  C 274.40 108.41 281.69 108.56 290.42 108.20
  Q 301.23 107.76 309.92 101.99
  A 1.38 1.34 77.3 0 0 310.51 101.03
  L 311.15 95.79
  Z"
/>
<path fill="#88d176" d="
  M 72.31 116.58
  L 54.80 127.35
  L 45.10 112.14
  Q 52.60 104.89 62.28 98.76
  Q 63.69 97.87 64.43 99.36
  Q 66.34 103.20 69.09 107.67
  Q 70.92 110.64 72.31 116.58
  Z"
/>
<path fill="#1d814b" d="
  M 309.59 107.52
  Q 308.34 114.49 304.59 119.55
  Q 299.03 126.97 290.91 131.39
  Q 283.96 135.17 278.85 136.55
  Q 268.20 139.43 254.64 137.16
  C 253.44 136.96 252.68 135.87 252.41 134.77
  Q 251.39 130.67 250.39 126.56
  Q 253.13 127.01 255.75 126.98
  Q 266.62 126.88 274.51 125.22
  Q 281.53 123.76 289.32 119.25
  Q 299.32 113.47 309.59 107.52
  Z"
/>
<path fill="#c0eb9b" d="
  M 87.49 109.13
  Q 94.03 109.91 100.61 110.71
  C 106.06 111.38 111.58 112.70 117.02 113.72
  Q 117.77 113.86 119.90 114.58
  C 121.14 114.99 122.34 115.06 123.61 115.37
  Q 130.82 117.08 138.01 118.95
  Q 157.40 123.97 176.27 130.74
  Q 176.69 130.89 177.24 130.14
  L 178.14 135.91
  Q 178.22 136.41 177.85 136.74
  L 177.04 137.49
  L 173.33 140.07
  Q 162.99 140.16 152.64 137.85
  Q 146.26 136.42 141.76 135.83
  C 132.94 134.67 125.07 131.94 116.69 129.07
  Q 111.65 127.34 104.77 124.12
  Q 98.95 121.39 92.53 118.91
  L 90.95 115.90
  L 87.49 109.13
  Z"
/>
<path fill="#43a85a" d="
  M 45.10 112.14
  L 54.80 127.35
  Q 40.39 137.03 33.34 143.84
  Q 23.98 152.88 14.44 162.18
  Q 13.19 163.40 13.64 161.71
  Q 15.01 156.54 17.39 151.35
  Q 21.89 141.51 26.82 131.92
  L 27.15 131.56
  Q 27.47 131.23 27.93 131.17
  Q 28.49 131.09 28.60 130.24
  Q 28.19 129.86 28.73 129.27
  Q 28.73 130.13 30.04 128.95
  Q 30.44 128.59 30.90 128.00
  Q 37.39 119.73 45.10 112.14
  Z"
/>
<path fill="#013f3a" d="
  M 241.86 112.08
  C 245.63 116.72 247.70 121.53 250.39 126.56
  Q 251.39 130.67 252.41 134.77
  C 252.68 135.87 253.44 136.96 254.64 137.16
  Q 268.20 139.43 278.85 136.55
  Q 283.96 135.17 290.91 131.39
  Q 299.03 126.97 304.59 119.55
  Q 305.61 124.49 302.43 128.92
  Q 301.10 130.77 301.03 131.83
  C 300.82 134.67 303.01 137.44 305.29 138.81
  Q 294.10 147.58 281.81 150.89
  Q 280.11 151.34 274.61 152.33
  C 268.92 153.35 263.07 153.10 257.50 152.95
  Q 255.97 152.92 256.03 154.44
  L 256.28 160.54
  A 2.16 2.15 -86.4 0 0 258.07 162.58
  Q 270.59 164.76 278.36 169.14
  Q 288.60 174.91 296.52 182.86
  C 311.54 197.94 316.08 221.80 312.97 242.25
  Q 312.44 245.74 310.34 251.17
  Q 310.27 247.55 311.88 244.47
  A 1.34 1.34 0.0 0 0 311.08 242.57
  Q 309.69 242.15 308.34 241.51
  C 305.86 240.34 303.90 237.95 301.81 236.19
  A 1.10 1.07 62.2 0 0 301.01 235.93
  Q 300.09 236.01 299.35 236.87
  L 299.30 228.69
  Q 300.04 225.70 299.02 222.49
  Q 297.02 203.32 283.77 189.96
  C 278.34 184.49 269.20 178.73 260.79 177.32
  Q 258.26 176.89 255.62 176.24
  Q 255.13 176.12 254.88 176.26
  Q 254.52 176.46 254.45 177.00
  Q 253.74 177.13 253.76 177.75
  Q 253.90 180.99 252.97 184.29
  L 249.98 195.09
  Q 249.85 195.58 250.23 195.90
  Q 257.62 202.14 259.52 203.99
  Q 264.26 208.61 269.63 215.57
  Q 266.89 223.70 261.17 227.63
  Q 253.49 217.40 243.14 208.97
  A 1.16 1.16 0.0 0 0 241.40 209.29
  L 236.73 217.47
  Q 223.78 232.94 208.25 245.76
  Q 204.61 241.58 202.88 236.77
  Q 202.25 235.00 199.64 233.70
  Q 213.36 224.37 223.40 211.58
  A 0.89 0.86 -83.0 0 1 223.72 211.32
  L 224.48 210.96
  Q 225.15 210.64 224.64 210.10
  L 223.78 209.19
  Q 219.23 203.45 214.32 197.93
  Q 211.21 194.42 198.70 177.32
  Q 194.13 171.06 191.18 165.38
  Q 187.51 158.31 183.36 150.99
  A 1.15 1.14 60.2 0 0 181.79 150.56
  C 178.05 152.76 174.28 154.91 170.93 157.73
  Q 163.74 163.80 156.97 170.08
  C 154.97 171.94 157.26 175.18 157.80 177.20
  Q 158.67 180.41 160.22 183.70
  L 163.89 198.93
  A 1.20 1.04 -74.6 0 0 164.10 199.37
  L 164.43 199.79
  L 168.51 220.60
  Q 164.77 222.50 161.33 224.57
  C 159.44 225.71 157.69 225.98 155.59 226.44
  L 154.29 220.98
  Q 153.82 216.86 153.38 214.87
  Q 153.28 214.43 152.79 214.13
  Q 152.23 213.71 152.76 213.76
  Q 153.04 213.04 152.78 211.99
  Q 152.35 210.24 151.40 208.92
  L 143.45 175.10
  A 2.25 2.25 0.0 0 0 141.63 173.39
  Q 129.36 171.38 117.75 167.96
  Q 115.95 167.43 115.09 168.10
  Q 108.25 173.43 98.57 183.20
  Q 96.29 181.46 91.50 180.77
  Q 87.23 180.15 84.52 176.68
  L 97.00 165.92
  L 102.34 161.50
  Q 104.09 160.29 103.64 159.70
  C 101.22 156.64 98.57 153.70 96.36 150.52
  Q 88.91 139.82 81.14 128.37
  A 1.24 1.23 -30.1 0 0 79.57 127.96
  Q 67.23 134.17 55.29 142.89
  C 51.25 145.84 47.86 149.43 43.90 152.48
  Q 36.44 158.23 29.76 165.78
  Q 23.45 172.91 17.23 179.01
  Q 13.16 176.26 7.74 175.96
  Q 3.78 175.74 0.00 174.60
  L 0.00 169.46
  C 0.37 166.67 0.86 164.00 0.97 161.17
  Q 1.17 155.82 1.96 150.30
  Q 2.36 147.54 3.80 144.30
  Q 5.14 141.25 6.49 138.45
  Q 8.13 136.94 9.16 134.55
  Q 9.35 134.11 9.83 134.19
  Q 10.93 134.39 11.99 134.11
  Q 18.38 132.42 25.50 130.32
  Q 26.37 130.07 26.58 130.94
  L 26.82 131.92
  Q 21.89 141.51 17.39 151.35
  Q 15.01 156.54 13.64 161.71
  Q 13.19 163.40 14.44 162.18
  Q 23.98 152.88 33.34 143.84
  Q 40.39 137.03 54.80 127.35
  L 72.31 116.58
  Q 72.48 115.97 74.62 115.71
  Q 75.11 116.54 75.36 117.69
  C 75.91 120.24 78.19 121.85 80.65 122.38
  Q 83.84 123.06 87.02 124.37
  Q 87.55 124.59 88.07 124.33
  Q 89.75 123.48 90.40 121.74
  Q 90.58 121.26 90.40 120.77
  Q 89.94 119.50 89.52 118.17
  Q 89.28 117.44 89.64 116.81
  Q 90.04 116.10 90.95 115.90
  L 92.53 118.91
  Q 96.04 126.71 100.44 133.16
  C 104.77 139.50 110.56 147.20 115.11 152.21
  Q 116.37 153.59 117.99 153.98
  Q 131.31 157.15 145.52 160.43
  A 3.01 3.00 -57.6 0 0 148.05 159.86
  L 173.33 140.07
  L 177.04 137.49
  Q 177.65 137.51 177.82 138.01
  Q 177.98 138.49 177.67 138.89
  L 176.32 140.72
  Q 175.90 141.29 176.15 141.95
  Q 176.83 143.75 179.13 143.94
  C 182.09 144.19 187.14 143.82 188.42 140.72
  Q 188.91 139.56 189.14 138.09
  Q 189.66 134.88 191.71 132.68
  Q 193.18 136.47 194.22 139.98
  Q 194.49 140.93 195.10 141.88
  Q 195.61 142.68 196.18 143.70
  Q 198.28 151.58 203.55 159.30
  Q 215.66 179.96 232.88 196.68
  A 0.71 0.70 -59.4 0 0 234.04 196.38
  C 235.00 193.25 236.18 190.43 236.98 187.15
  Q 240.65 172.02 241.28 166.99
  Q 242.31 158.67 239.73 146.76
  L 239.73 146.25
  Q 239.42 142.06 237.71 138.33
  Q 237.21 136.46 236.69 134.47
  Q 236.17 132.53 235.32 130.76
  Q 233.51 127.01 231.57 123.11
  L 239.41 120.23
  A 2.00 2.00 0.0 0 0 240.70 118.10
  Q 240.28 114.79 241.86 112.08
  Z"
/>
<path fill="#88d176" d="
  M 239.30 145.69
  Q 239.46 145.61 239.73 146.25
  L 239.73 146.76
  L 239.73 147.54
  Q 239.73 148.23 239.17 147.83
  Q 239.00 147.70 238.85 147.60
  Q 238.57 147.39 238.45 147.06
  Q 237.76 145.20 236.84 143.61
  A 0.81 0.80 -20.9 0 0 235.98 143.23
  Q 232.12 144.06 229.79 145.70
  C 221.36 151.65 212.58 154.95 203.55 159.30
  Q 198.28 151.58 196.18 143.70
  Q 196.90 138.69 194.91 133.52
  Q 194.39 132.15 194.64 129.73
  Q 194.69 129.23 195.04 128.87
  Q 195.74 128.18 196.55 127.62
  Q 205.80 121.19 214.97 115.23
  C 217.14 113.82 219.37 112.07 221.67 114.59
  Q 229.49 123.16 235.30 135.80
  C 236.82 139.11 237.11 142.34 238.65 145.58
  Q 238.76 145.81 239.01 145.82
  Q 239.24 145.84 239.30 145.69
  Z"
/>
<path fill="#88d176" d="
  M 92.53 118.91
  Q 98.95 121.39 104.77 124.12
  Q 111.65 127.34 116.69 129.07
  C 125.07 131.94 132.94 134.67 141.76 135.83
  Q 146.26 136.42 152.64 137.85
  Q 162.99 140.16 173.33 140.07
  L 148.05 159.86
  A 3.01 3.00 -57.6 0 1 145.52 160.43
  Q 131.31 157.15 117.99 153.98
  Q 116.37 153.59 115.11 152.21
  C 110.56 147.20 104.77 139.50 100.44 133.16
  Q 96.04 126.71 92.53 118.91
  Z"
/>
<path fill="#88d176" d="
  M 102.34 161.50
  L 97.00 165.92
  Q 91.19 164.18 86.02 162.17
  Q 78.62 159.29 71.20 156.41
  Q 66.28 154.49 62.61 152.03
  Q 58.64 149.36 54.77 146.33
  Q 64.47 138.85 75.20 132.46
  Q 76.55 131.65 77.66 131.19
  A 2.04 2.03 62.4 0 1 80.15 131.97
  Q 90.17 147.58 102.34 161.50
  Z"
/>
<path fill="#1d814b" d="
  M 237.71 138.33
  Q 239.42 142.06 239.73 146.25
  Q 239.46 145.61 239.30 145.69
  L 238.35 141.08
  A 1.73 1.72 -68.1 0 0 238.07 140.42
  Q 237.33 139.36 237.71 138.33
  Z"
/>
<path fill="#43a85a" d="
  M 239.73 146.76
  Q 242.31 158.67 241.28 166.99
  Q 240.65 172.02 236.98 187.15
  C 236.18 190.43 235.00 193.25 234.04 196.38
  A 0.71 0.70 -59.4 0 1 232.88 196.68
  Q 215.66 179.96 203.55 159.30
  C 212.58 154.95 221.36 151.65 229.79 145.70
  Q 232.12 144.06 235.98 143.23
  A 0.81 0.80 -20.9 0 1 236.84 143.61
  Q 237.76 145.20 238.45 147.06
  Q 238.57 147.39 238.85 147.60
  Q 239.00 147.70 239.17 147.83
  Q 239.73 148.23 239.73 147.54
  L 239.73 146.76
  Z"
/>
<path fill="#43a85a" d="
  M 54.77 146.33
  Q 58.64 149.36 62.61 152.03
  Q 66.28 154.49 71.20 156.41
  Q 78.62 159.29 86.02 162.17
  Q 91.19 164.18 97.00 165.92
  L 84.52 176.68
  L 75.23 184.42
  Q 69.70 181.83 64.25 179.28
  C 60.10 177.34 54.52 175.95 50.06 173.44
  Q 43.27 169.63 34.37 163.69
  L 54.77 146.33
  Z"
/>
<path fill="#66bf65" d="
  M 205.90 190.97
  Q 198.51 192.48 192.11 195.97
  C 191.07 196.54 188.97 197.05 187.80 197.15
  Q 176.26 198.05 165.48 199.76
  Q 164.99 199.84 164.43 199.79
  L 164.10 199.37
  A 1.20 1.04 -74.6 0 1 163.89 198.93
  L 160.22 183.70
  Q 160.32 178.25 158.93 173.23
  Q 158.73 172.52 159.27 172.04
  Q 165.24 166.63 171.04 161.62
  C 173.78 159.26 176.84 157.33 179.91 155.45
  Q 180.78 154.92 181.55 155.58
  Q 182.64 156.49 183.34 157.71
  C 187.87 165.61 192.36 172.98 197.82 180.25
  Q 201.83 185.58 205.90 190.97
  Z"
/>
<path fill="#1d814b" d="
  M 34.37 163.69
  Q 43.27 169.63 50.06 173.44
  C 54.52 175.95 60.10 177.34 64.25 179.28
  Q 69.70 181.83 75.23 184.42
  Q 64.62 194.51 53.22 203.95
  Q 51.02 205.77 47.59 209.67
  Q 35.96 201.03 29.31 193.21
  Q 25.24 188.43 19.59 178.65
  L 34.37 163.69
  Z"
/>
<path fill="#66bf65" d="
  M 145.00 192.27
  Q 140.24 191.22 135.46 190.59
  Q 129.24 189.77 126.25 188.53
  C 121.39 186.51 117.89 184.07 114.17 180.06
  Q 112.26 178.00 110.05 176.06
  L 115.75 171.61
  Q 116.16 171.29 116.66 171.40
  L 139.74 176.25
  A 2.11 2.10 88.9 0 1 141.35 177.80
  L 145.00 192.27
  Z"
/>
<path fill="#012929" d="
  M 0.00 174.60
  Q 3.78 175.74 7.74 175.96
  Q 13.16 176.26 17.23 179.01
  L 9.50 187.96
  Q 8.06 188.92 7.43 190.50
  Q 16.41 205.06 27.96 217.79
  Q 30.05 220.08 32.35 222.12
  A 1.02 1.02 0.0 0 0 33.71 222.12
  L 47.59 209.67
  Q 51.02 205.77 53.22 203.95
  Q 64.62 194.51 75.23 184.42
  L 84.52 176.68
  Q 87.23 180.15 91.50 180.77
  Q 96.29 181.46 98.57 183.20
  L 102.00 194.62
  L 103.64 204.73
  Q 104.94 212.92 105.24 218.25
  Q 105.65 225.60 105.56 236.06
  L 104.22 253.84
  A 1.40 1.39 -84.7 0 0 105.45 255.33
  Q 120.99 257.18 136.51 256.26
  C 144.00 255.82 151.60 254.17 159.24 252.58
  A 0.84 0.83 -10.4 0 0 159.90 251.63
  L 157.92 238.97
  L 155.59 226.44
  C 157.69 225.98 159.44 225.71 161.33 224.57
  Q 164.77 222.50 168.51 220.60
  L 170.40 228.64
  L 174.14 246.87
  Q 174.45 248.37 175.85 247.75
  Q 185.55 243.46 195.07 237.08
  Q 198.74 234.62 199.64 233.70
  Q 202.25 235.00 202.88 236.77
  Q 204.61 241.58 208.25 245.76
  L 190.07 256.48
  Q 177.86 262.20 164.72 266.51
  Q 139.97 273.52 113.26 271.36
  Q 86.57 269.21 64.12 259.08
  Q 54.90 254.93 46.39 249.98
  Q 31.32 241.23 18.83 228.56
  Q 15.44 225.13 17.72 229.38
  Q 18.35 230.57 20.24 233.36
  L 17.88 252.90
  Q 5.39 227.05 1.62 198.46
  C 1.07 194.26 1.15 187.93 0.00 182.63
  L 0.00 174.60
  Z
  M 69.91 207.98
  L 58.93 217.48
  L 45.11 229.45
  A 0.75 0.75 0.0 0 0 45.15 230.62
  Q 57.21 239.55 70.47 245.43
  C 75.89 247.83 81.63 249.39 87.24 251.22
  Q 89.97 252.11 90.21 249.25
  L 91.54 233.29
  Q 91.08 222.64 90.87 212.19
  Q 90.79 208.51 88.80 202.28
  L 87.46 194.48
  A 0.73 0.72 -25.0 0 0 86.27 194.05
  L 69.91 207.98
  Z"
/>
<path fill="#43a85a" d="
  M 110.05 176.06
  Q 112.26 178.00 114.17 180.06
  C 117.89 184.07 121.39 186.51 126.25 188.53
  Q 129.24 189.77 135.46 190.59
  Q 140.24 191.22 145.00 192.27
  Q 148.96 202.39 151.57 213.47
  Q 151.67 213.91 151.93 214.13
  Q 152.44 214.57 152.79 214.13
  Q 153.28 214.43 153.38 214.87
  Q 153.82 216.86 154.29 220.98
  Q 152.25 219.24 152.13 216.07
  Q 152.11 215.53 151.70 215.18
  C 150.61 214.23 148.76 214.82 147.32 214.75
  Q 134.42 214.11 126.91 212.80
  Q 123.54 212.21 119.76 210.85
  Q 118.85 210.53 112.12 208.46
  Q 107.84 207.15 103.64 204.73
  L 102.00 194.62
  Q 103.53 192.15 101.94 189.23
  Q 101.20 187.88 101.07 183.85
  Q 101.05 183.34 101.45 183.01
  L 110.05 176.06
  Z"
/>
<path fill="#66bf65" d="
  M 254.45 177.00
  Q 254.47 177.82 254.90 178.41
  Q 255.09 178.67 255.40 178.74
  Q 272.04 182.71 281.92 192.55
  Q 286.92 197.52 290.99 204.58
  Q 294.97 211.46 297.45 221.53
  C 297.67 222.41 298.22 222.86 298.55 223.64
  Q 299.00 224.67 299.01 223.55
  L 299.02 222.49
  Q 300.04 225.70 299.30 228.69
  Q 290.70 223.65 287.37 217.37
  C 284.37 211.70 282.02 207.09 276.71 202.30
  Q 265.59 192.27 252.97 184.29
  Q 253.90 180.99 253.76 177.75
  Q 253.74 177.13 254.45 177.00
  Z"
/>
<path fill="#054b31" d="
  M 19.59 178.65
  Q 25.24 188.43 29.31 193.21
  Q 35.96 201.03 47.59 209.67
  L 33.71 222.12
  A 1.02 1.02 0.0 0 1 32.35 222.12
  Q 30.05 220.08 27.96 217.79
  Q 16.41 205.06 7.43 190.50
  Q 10.01 190.55 10.01 187.99
  L 19.59 178.65
  Z"
/>
<path fill="#1d814b" d="
  M 252.97 184.29
  Q 265.59 192.27 276.71 202.30
  C 282.02 207.09 284.37 211.70 287.37 217.37
  Q 290.70 223.65 299.30 228.69
  L 299.35 236.87
  Q 297.59 250.39 289.90 261.88
  Q 289.03 263.18 287.68 264.04
  A 0.47 0.47 0.0 0 1 286.96 263.65
  Q 286.88 258.02 286.21 252.24
  Q 283.88 232.04 269.63 215.57
  Q 264.26 208.61 259.52 203.99
  Q 257.62 202.14 250.23 195.90
  Q 249.85 195.58 249.98 195.09
  L 252.97 184.29
  Z"
/>
<path fill="#1d814b" d="
  M 9.50 187.96
  Q 9.75 187.97 10.01 187.99
  Q 10.01 190.55 7.43 190.50
  Q 8.06 188.92 9.50 187.96
  Z"
/>
<path fill="#1d814b" d="
  M 205.90 190.97
  L 214.78 201.61
  Q 212.72 201.61 211.81 202.56
  Q 198.98 215.98 184.52 223.53
  Q 179.56 226.12 170.40 228.64
  L 168.51 220.60
  L 164.43 199.79
  Q 164.99 199.84 165.48 199.76
  Q 176.26 198.05 187.80 197.15
  C 188.97 197.05 191.07 196.54 192.11 195.97
  Q 198.51 192.48 205.90 190.97
  Z"
/>
<path fill="#1d814b" d="
  M 88.80 202.28
  Q 90.79 208.51 90.87 212.19
  Q 91.08 222.64 91.54 233.29
  L 91.17 233.32
  Q 90.84 233.36 90.63 233.09
  Q 89.38 231.50 87.77 231.00
  Q 77.66 227.85 70.13 224.37
  Q 64.26 221.66 58.93 217.48
  L 69.91 207.98
  Q 71.94 207.62 73.65 205.88
  Q 75.64 203.85 76.74 203.15
  Q 80.85 200.53 84.60 197.58
  A 1.15 1.15 0.0 0 1 86.40 198.13
  Q 87.05 200.16 87.71 202.29
  Q 88.40 204.53 88.57 206.52
  Q 88.83 209.50 89.52 212.19
  A 0.27 0.27 0.0 0 0 90.05 212.09
  L 88.80 202.28
  Z"
/>
<path fill="#054b31" d="
  M 214.78 201.61
  L 223.35 209.74
  A 0.28 0.27 -55.4 0 0 223.79 209.65
  Q 223.84 209.54 223.78 209.19
  L 224.64 210.10
  Q 225.15 210.64 224.48 210.96
  L 223.72 211.32
  A 0.89 0.86 -83.0 0 0 223.40 211.58
  Q 213.36 224.37 199.64 233.70
  Q 198.74 234.62 195.07 237.08
  Q 185.55 243.46 175.85 247.75
  Q 174.45 248.37 174.14 246.87
  L 170.40 228.64
  Q 179.56 226.12 184.52 223.53
  Q 198.98 215.98 211.81 202.56
  Q 212.72 201.61 214.78 201.61
  Z"
/>
<path fill="#1d814b" d="
  M 103.64 204.73
  Q 107.84 207.15 112.12 208.46
  Q 118.85 210.53 119.76 210.85
  Q 123.54 212.21 126.91 212.80
  Q 134.42 214.11 147.32 214.75
  C 148.76 214.82 150.61 214.23 151.70 215.18
  Q 152.11 215.53 152.13 216.07
  Q 152.25 219.24 154.29 220.98
  L 155.59 226.44
  L 157.92 238.97
  Q 156.62 239.03 156.56 236.42
  A 1.87 1.86 -4.4 0 0 154.45 234.62
  C 149.39 235.29 144.49 236.90 139.59 237.21
  Q 127.59 238.00 115.25 237.08
  Q 110.68 236.74 105.56 236.06
  Q 105.65 225.60 105.24 218.25
  Q 104.94 212.92 103.64 204.73
  Z"
/>
<path fill="#1d814b" d="
  M 152.76 213.76
  L 151.40 208.92
  Q 152.35 210.24 152.78 211.99
  Q 153.04 213.04 152.76 213.76
  Z"
/>
<path fill="#012929" d="
  M 269.63 215.57
  Q 283.88 232.04 286.21 252.24
  Q 286.88 258.02 286.96 263.65
  A 0.47 0.47 0.0 0 0 287.68 264.04
  Q 289.03 263.18 289.90 261.88
  Q 297.59 250.39 299.35 236.87
  Q 300.09 236.01 301.01 235.93
  A 1.10 1.07 62.2 0 1 301.81 236.19
  C 303.90 237.95 305.86 240.34 308.34 241.51
  Q 309.69 242.15 311.08 242.57
  A 1.34 1.34 0.0 0 1 311.88 244.47
  Q 310.27 247.55 310.34 251.17
  Q 306.61 265.11 295.91 275.42
  Q 289.53 281.57 281.55 286.93
  C 279.64 288.21 275.64 290.28 273.88 288.07
  Q 272.93 286.87 272.99 285.37
  Q 273.38 276.01 273.26 266.67
  Q 273.08 251.09 266.01 236.85
  Q 263.76 232.30 261.17 227.63
  Q 266.89 223.70 269.63 215.57
  Z"
/>
<path fill="#57ddc2" d="
  M 236.73 217.47
  Q 243.59 223.67 248.94 230.74
  Q 242.16 238.08 235.81 245.55
  Q 233.14 248.68 228.15 252.06
  Q 213.25 250.59 205.48 251.95
  Q 203.15 252.36 195.27 256.15
  Q 193.00 257.24 190.07 256.48
  L 208.25 245.76
  Q 223.78 232.94 236.73 217.47
  Z"
/>
<path fill="#054b31" d="
  M 58.93 217.48
  Q 64.26 221.66 70.13 224.37
  Q 77.66 227.85 87.77 231.00
  Q 89.38 231.50 90.63 233.09
  Q 90.84 233.36 91.17 233.32
  L 91.54 233.29
  L 90.21 249.25
  Q 89.97 252.11 87.24 251.22
  C 81.63 249.39 75.89 247.83 70.47 245.43
  Q 57.21 239.55 45.15 230.62
  A 0.75 0.75 0.0 0 1 45.11 229.45
  L 58.93 217.48
  Z"
/>
<path fill="#139d9f" d="
  M 164.72 266.51
  Q 163.87 267.87 162.46 268.77
  Q 162.03 269.04 161.89 269.52
  Q 161.36 271.22 162.69 272.34
  Q 166.73 275.72 171.75 279.28
  Q 173.85 280.77 177.43 279.90
  Q 177.21 280.35 177.16 280.35
  Q 170.33 281.78 163.73 283.17
  C 151.95 285.63 141.26 286.02 129.28 285.63
  Q 119.24 285.31 109.45 283.28
  Q 80.19 277.22 54.37 262.27
  C 46.70 257.84 40.08 252.24 32.69 247.52
  Q 30.50 246.12 28.24 244.37
  L 20.24 233.36
  Q 18.35 230.57 17.72 229.38
  Q 15.44 225.13 18.83 228.56
  Q 31.32 241.23 46.39 249.98
  Q 54.90 254.93 64.12 259.08
  Q 86.57 269.21 113.26 271.36
  Q 139.97 273.52 164.72 266.51
  Z"
/>
<path fill="#15b0aa" d="
  M 248.94 230.74
  Q 254.59 238.46 257.62 245.80
  A 2.21 2.19 -44.8 0 1 257.61 247.52
  Q 256.36 250.39 254.63 253.32
  Q 248.06 264.41 240.49 272.66
  C 237.98 275.39 234.86 279.15 231.71 282.15
  Q 226.60 278.93 221.29 276.22
  C 219.34 275.22 217.05 275.13 215.29 276.61
  Q 206.42 284.08 194.92 289.53
  Q 193.91 290.02 192.94 289.46
  C 189.12 287.27 184.93 285.75 181.25 283.27
  Q 179.13 281.83 177.16 280.35
  Q 177.21 280.35 177.43 279.90
  Q 188.69 276.03 193.42 274.15
  Q 212.67 266.49 228.15 252.06
  Q 233.14 248.68 235.81 245.55
  Q 242.16 238.08 248.94 230.74
  Z"
/>
<path fill="#023838" d="
  M 20.24 233.36
  L 28.24 244.37
  Q 45.21 270.52 71.29 286.35
  Q 79.63 291.40 89.34 294.83
  Q 107.45 301.22 126.37 303.11
  Q 129.66 310.95 135.39 317.09
  Q 135.73 317.45 135.77 317.96
  Q 135.83 318.93 136.15 319.29
  Q 134.34 319.85 132.74 319.37
  Q 130.20 318.62 129.62 318.58
  Q 125.50 318.34 121.39 318.09
  Q 116.90 317.82 113.17 317.05
  C 109.56 316.31 105.93 315.97 102.32 315.03
  C 81.37 309.58 60.69 299.70 44.13 285.62
  Q 33.11 276.26 27.95 270.05
  Q 23.47 264.67 17.88 252.90
  L 20.24 233.36
  Z"
/>
<path fill="#054b31" d="
  M 157.92 238.97
  L 159.90 251.63
  A 0.84 0.83 -10.4 0 1 159.24 252.58
  C 151.60 254.17 144.00 255.82 136.51 256.26
  Q 120.99 257.18 105.45 255.33
  A 1.40 1.39 -84.7 0 1 104.22 253.84
  L 105.56 236.06
  Q 110.68 236.74 115.25 237.08
  Q 127.59 238.00 139.59 237.21
  C 144.49 236.90 149.39 235.29 154.45 234.62
  A 1.87 1.86 -4.4 0 1 156.56 236.42
  Q 156.62 239.03 157.92 238.97
  Z"
/>
<path fill="#077074" d="
  M 28.24 244.37
  Q 30.50 246.12 32.69 247.52
  C 40.08 252.24 46.70 257.84 54.37 262.27
  Q 80.19 277.22 109.45 283.28
  Q 119.24 285.31 129.28 285.63
  C 141.26 286.02 151.95 285.63 163.73 283.17
  Q 170.33 281.78 177.16 280.35
  Q 179.13 281.83 181.25 283.27
  C 184.93 285.75 189.12 287.27 192.94 289.46
  Q 193.91 290.02 194.92 289.53
  Q 206.42 284.08 215.29 276.61
  C 217.05 275.13 219.34 275.22 221.29 276.22
  Q 226.60 278.93 231.71 282.15
  Q 226.27 287.20 220.04 291.54
  Q 208.33 299.67 196.37 305.54
  Q 190.17 301.85 183.59 299.24
  C 182.33 298.74 181.25 297.97 180.39 297.08
  A 2.11 2.09 59.4 0 0 178.29 296.53
  C 171.74 298.47 165.46 300.44 158.61 301.54
  C 148.29 303.20 139.14 303.17 126.37 303.11
  Q 107.45 301.22 89.34 294.83
  Q 79.63 291.40 71.29 286.35
  Q 45.21 270.52 28.24 244.37
  Z"
/>
<path fill="#24cbc3" d="
  M 228.15 252.06
  Q 212.67 266.49 193.42 274.15
  Q 188.69 276.03 177.43 279.90
  Q 173.85 280.77 171.75 279.28
  Q 166.73 275.72 162.69 272.34
  Q 161.36 271.22 161.89 269.52
  Q 162.03 269.04 162.46 268.77
  Q 163.87 267.87 164.72 266.51
  Q 177.86 262.20 190.07 256.48
  Q 193.00 257.24 195.27 256.15
  Q 203.15 252.36 205.48 251.95
  Q 213.25 250.59 228.15 252.06
  Z"
/>
<path fill="#025155" d="
  M 196.37 305.54
  Q 193.99 306.67 191.95 307.65
  Q 189.63 308.77 187.44 309.58
  Q 177.20 313.36 167.33 315.78
  C 158.05 318.06 148.81 318.74 138.82 318.75
  C 137.85 318.75 137.09 319.14 136.15 319.29
  Q 135.83 318.93 135.77 317.96
  Q 135.73 317.45 135.39 317.09
  Q 129.66 310.95 126.37 303.11
  C 139.14 303.17 148.29 303.20 158.61 301.54
  C 165.46 300.44 171.74 298.47 178.29 296.53
  A 2.11 2.09 59.4 0 1 180.39 297.08
  C 181.25 297.97 182.33 298.74 183.59 299.24
  Q 190.17 301.85 196.37 305.54
  Z"
/>
</svg>
