<svg xmlns="http://www.w3.org/2000/svg" width="933.333" height="933.333" preserveAspectRatio="xMidYMid meet" version="1.0" viewBox="0 0 700 700"><metadata>Created by potrace 1.14, written by Peter Selinger 2001-2017</metadata><g fill="#000" stroke="none"><path d="M5515 5833 c-64 -8 -192 -35 -240 -50 -130 -41 -311 -152 -427 -261 -72 -68 -213 -248 -263 -337 -33 -59 -54 -85 -69 -85 -6 0 -56 40 -111 88 -320 281 -846 499 -1391 578 -161 23 -543 23 -699 0 -475 -69 -913 -228 -1270 -461 -190 -123 -435 -348 -588 -540 -113 -141 -273 -386 -310 -475 -11 -25 -34 -79 -52 -120 -43 -97 -52 -131 -65 -265 -5 -60 -15 -159 -21 -220 -24 -231 13 -641 87 -970 80 -359 263 -804 423 -1032 87 -123 328 -349 520 -487 410 -294 953 -495 1412 -521 63 -4 131 -11 151 -16 51 -13 473 15 614 41 115 20 318 77 469 130 162 57 479 228 665 358 86 60 250 192 250 201 0 4 -49 35 -108 69 -146 84 -156 83 -277 -8 -90 -69 -300 -196 -341 -206 -26 -7 -200 78 -290 141 l-62 43 -184 -38 c-233 -48 -322 -59 -533 -67 -274 -9 -491 14 -770 82 -411 100 -823 284 -1145 511 -74 53 -178 125 -230 160 -81 56 -105 79 -160 156 -104 145 -160 229 -160 240 0 5 46 -34 103 -87 324 -307 827 -581 1274 -695 424 -107 858 -127 1263 -59 315 53 653 182 972 370 202 119 273 175 468 366 161 157 280 298 339 398 25 44 53 81 62 83 20 4 238 -204 318 -303 69 -86 178 -295 222 -425 62 -186 72 -266 71 -562 0 -250 1 -267 19 -287 11 -12 27 -21 37 -21 50 0 202 100 344 226 177 158 262 292 343 540 54 166 70 291 61 484 -22 475 -211 814 -596 1069 -152 100 -282 151 -503 196 -36 7 -49 41 -45 124 l3 66 180 6 c243 8 370 37 547 125 134 66 229 135 332 242 143 147 209 243 265 384 78 194 91 444 32 613 -46 131 -192 313 -321 399 -125 83 -415 135 -615 109z m277 -278 c88 -19 198 -70 254 -118 22 -20 63 -68 90 -108 l49 -73 3 -143 c3 -106 0 -156 -12 -195 l-15 -53 -228 -132 c-126 -73 -258 -146 -295 -162 -135 -62 -305 -91 -523 -91 l-130 0 -40 77 c-39 74 -97 167 -169 265 -22 31 -32 55 -29 68 3 11 9 20 14 20 5 0 20 22 33 49 47 92 166 260 234 328 185 189 380 280 604 282 48 1 120 -6 160 -14z m-2806 -70 c225 -30 661 -138 766 -191 94 -47 418 -249 415 -258 -2 -5 -80 -55 -173 -111 -94 -56 -210 -132 -259 -168 -48 -37 -91 -67 -96 -67 -4 0 -69 24 -146 54 -182 70 -252 92 -543 170 -506 134 -702 174 -1134 230 -109 15 -202 28 -206 31 -9 6 -50 91 -50 104 0 13 94 51 127 51 16 0 85 20 154 44 176 62 428 111 664 130 91 7 362 -4 481 -19z m-1679 -353 c7 -4 35 -62 62 -127 27 -66 65 -155 85 -199 42 -92 43 -102 14 -112 -49 -15 -459 -276 -596 -378 -94 -71 -212 -174 -332 -290 -102 -99 -204 -198 -228 -220 l-42 -40 16 54 c9 30 29 88 46 127 50 122 209 437 224 446 8 4 14 15 14 23 0 29 144 229 227 315 125 130 293 277 396 346 100 68 96 66 114 55z m645 -263 c301 -45 713 -139 1040 -238 204 -62 508 -167 521 -180 5 -5 15 -44 22 -85 l11 -76 -307 -240 c-183 -142 -317 -240 -329 -240 -12 0 -149 29 -303 65 l-282 66 -57 60 c-137 146 -309 393 -404 583 -36 72 -86 168 -111 213 -43 80 -47 103 -18 103 8 0 106 -14 217 -31z m2548 -154 c127 -190 208 -356 225 -461 2 -16 11 -56 20 -89 52 -191 68 -405 41 -550 -41 -220 -122 -515 -142 -522 -16 -5 -200 189 -310 327 -88 111 -139 184 -290 415 -52 80 -111 199 -129 259 -8 27 -21 59 -29 70 -27 42 -87 237 -84 274 3 37 7 40 290 229 188 126 293 190 304 186 8 -3 55 -65 104 -138z m-2735 -487 c88 -128 190 -271 228 -317 37 -47 67 -90 67 -97 0 -6 -10 -19 -22 -27 -13 -8 -73 -57 -134 -109 -326 -274 -404 -338 -412 -338 -5 0 -58 23 -118 51 -60 28 -160 71 -223 95 -118 45 -207 92 -369 197 l-93 60 -243 -242 c-355 -353 -338 -316 40 90 117 124 243 253 280 287 184 163 332 281 459 367 137 92 349 215 370 215 6 0 83 -105 170 -232z m1975 -400 c53 -97 114 -205 135 -240 54 -87 375 -510 485 -638 84 -99 103 -126 81 -118 -28 9 -301 298 -347 366 -5 8 -137 -35 -218 -71 -58 -26 -114 -42 -160 -48 -231 -28 -414 -49 -433 -49 -19 0 -24 15 -58 158 -21 86 -42 165 -47 175 -25 47 -77 218 -71 233 3 9 72 75 152 146 147 131 342 271 370 266 8 -2 58 -83 111 -180z m-1260 -202 c74 -19 184 -44 245 -56 60 -11 113 -24 117 -28 4 -4 44 -163 88 -352 83 -355 96 -407 111 -450 5 -14 13 -50 18 -80 8 -48 7 -52 -6 -34 -7 10 -16 30 -19 44 -10 43 -13 50 -26 54 -7 2 -92 9 -189 15 -96 6 -213 18 -260 25 -100 16 -361 97 -440 137 l-56 28 -13 83 c-7 46 -30 141 -52 213 l-38 129 67 69 c38 38 115 110 172 159 81 70 108 88 125 84 11 -4 82 -22 156 -40z m2722 -155 c383 -88 693 -450 743 -866 3 -27 8 -69 11 -91 8 -55 -8 -63 -58 -27 -95 65 -142 119 -213 244 -60 106 -84 139 -175 229 -96 97 -315 272 -432 345 -30 19 -46 35 -44 45 3 8 8 40 11 70 8 64 19 82 49 75 11 -2 60 -13 108 -24z m-3453 -393 c6 -35 13 -81 16 -103 2 -22 8 -64 14 -94 6 -29 11 -68 11 -85 -1 -51 -18 -8 -30 73 -13 95 -41 192 -56 198 -14 5 -196 -120 -229 -157 -20 -23 -74 -54 -81 -48 -6 6 329 287 337 282 4 -2 12 -32 18 -66z" transform="translate(0.000000,700.000000) scale(0.100000,-0.100000)"/><path d="M5734 5279 c-37 -10 -80 -68 -89 -119 -9 -55 15 -121 54 -147 40 -27 108 -30 152 -8 88 46 93 201 8 252 -43 26 -85 33 -125 22z" transform="translate(0.000000,700.000000) scale(0.100000,-0.100000)"/></g></svg>