<?xml version="1.0" standalone="no"?>
<!DOCTYPE svg PUBLIC "-//W3C//DTD SVG 20010904//EN"
 "http://www.w3.org/TR/2001/REC-SVG-20010904/DTD/svg10.dtd">
<svg version="1.0" xmlns="http://www.w3.org/2000/svg"
 width="700.000000pt" height="700.000000pt" viewBox="0 0 700.000000 700.000000"
 preserveAspectRatio="xMidYMid meet">
<metadata>
Created by potrace 1.14, written by Peter Selinger 2001-2017
</metadata>
<g transform="translate(0.000000,700.000000) scale(0.100000,-0.100000)"
fill="#000000" stroke="none">
<path d="M5498 6115 c-2 -2 -34 -6 -73 -10 -244 -24 -471 -186 -636 -454 -24
-39 -48 -71 -52 -71 -5 0 -39 27 -75 60 -227 205 -635 374 -1022 424 -183 23
-483 10 -665 -28 -143 -31 -254 -64 -430 -130 -133 -51 -332 -166 -450 -261
-86 -70 -237 -213 -280 -265 -130 -159 -236 -329 -294 -472 -13 -32 -24 -58
-25 -59 0 0 -28 -3 -61 -6 -236 -22 -496 -159 -621 -328 -117 -159 -158 -237
-187 -355 -25 -101 -28 -119 -31 -220 -8 -204 56 -397 192 -577 83 -108 119
-104 166 18 101 260 249 476 398 577 l47 32 10 -37 c12 -46 25 -96 26 -103 15
-69 85 -259 135 -365 49 -104 154 -273 221 -355 29 -36 103 -115 164 -176 323
-324 743 -530 1200 -589 153 -20 253 -23 420 -13 125 8 129 8 260 34 286 57
596 202 860 402 159 121 382 391 466 566 l21 42 -35 70 c-19 38 -47 86 -61
107 -14 21 -26 40 -26 41 0 8 -67 82 -126 141 l-61 60 33 55 c18 30 35 59 37
65 9 25 212 -174 284 -280 35 -51 98 -181 122 -250 35 -102 49 -226 47 -410
-2 -170 4 -209 32 -220 46 -17 259 145 374 285 53 65 100 161 137 277 39 125
46 169 46 308 0 133 -7 185 -40 300 -45 153 -119 280 -226 387 -67 67 -199
162 -272 197 -63 30 -225 81 -257 81 -27 0 -37 20 -36 79 l1 54 125 2 c264 3
485 97 658 279 147 155 219 314 227 501 8 177 -40 301 -165 425 -112 113 -225
158 -406 165 -51 1 -94 2 -96 0z m210 -226 c61 -19 106 -45 141 -81 40 -40 86
-106 79 -114 -3 -2 -39 8 -79 24 -198 79 -345 111 -474 105 -45 -2 -71 -10
-108 -33 -26 -16 -51 -30 -54 -30 -7 0 -161 -156 -188 -190 -11 -14 -35 -44
-54 -68 -18 -24 -35 -41 -38 -39 -6 7 53 103 102 167 121 157 281 258 440 278
67 8 177 -1 233 -19z m-2113 -33 c17 -2 53 -7 80 -11 91 -13 252 -53 442 -111
29 -9 69 -27 88 -40 20 -13 38 -24 41 -24 12 0 234 -136 234 -143 0 -5 -19 -6
-42 -3 -24 3 -79 6 -122 7 -44 1 -98 6 -120 10 -23 4 -74 10 -114 13 -40 3
-90 10 -110 15 -20 5 -50 12 -67 15 -16 3 -41 7 -55 10 -14 3 -77 14 -140 25
-166 30 -170 31 -225 41 -70 13 -94 18 -117 26 -11 3 -30 7 -41 9 -12 1 -74
12 -137 23 -63 12 -131 24 -150 28 -41 7 -150 7 -200 0 -73 -11 -185 -16 -160
-7 166 58 366 103 510 117 41 3 76 8 78 9 4 4 293 -4 327 -9z m-985 -163 c0
-21 -3 -24 -9 -14 -5 8 -7 20 -4 28 8 21 13 15 13 -14z m-145 -241 c33 -81 60
-151 60 -157 0 -5 -6 -10 -14 -10 -7 0 -21 20 -30 45 -16 39 -96 198 -107 209
-2 3 -43 -22 -91 -54 -99 -68 -271 -233 -367 -353 -36 -45 -66 -80 -66 -77 0
16 128 193 181 249 115 123 328 296 363 296 6 0 38 -67 71 -148z m310 -32 c39
-6 84 -12 100 -15 273 -42 645 -137 980 -250 122 -41 151 -54 153 -70 3 -18
-18 -13 -217 52 -120 40 -229 74 -242 77 -13 3 -40 10 -59 15 -70 19 -367 92
-435 107 -79 17 -104 21 -190 29 -33 4 -78 8 -99 10 -22 2 -47 13 -57 24 -33
35 -33 35 66 21z m1941 -122 c105 -160 142 -237 169 -345 33 -130 30 -159 -4
-53 -33 103 -76 188 -147 295 -58 87 -99 135 -115 135 -8 0 -338 -218 -358
-236 -3 -3 3 -46 13 -98 11 -51 17 -99 14 -106 -2 -8 -21 34 -42 92 -22 62
-35 114 -32 125 6 15 409 292 428 293 3 0 37 -46 74 -102z m-1985 -355 c63
-92 137 -197 166 -233 33 -40 49 -68 43 -74 -5 -5 -11 -8 -13 -5 -73 85 -204
257 -254 331 -35 53 -71 99 -79 102 -21 8 -328 -188 -390 -248 -6 -6 -37 -33
-69 -61 -119 -100 -243 -214 -352 -323 -62 -62 -113 -109 -113 -105 0 12 377
393 449 454 168 142 290 226 461 316 14 7 28 13 31 13 4 0 58 -75 120 -167z
m1410 -245 c78 -154 132 -242 210 -348 96 -129 205 -271 233 -302 12 -13 41
-48 65 -78 40 -50 38 -49 -31 20 -71 72 -227 252 -258 300 -8 12 -20 28 -26
34 -22 24 -124 177 -189 284 -37 61 -73 112 -80 112 -22 0 -110 -64 -221 -161
-77 -67 -104 -96 -99 -108 4 -9 9 -38 11 -65 3 -28 7 -53 10 -58 3 -4 1 -8 -3
-8 -13 0 -55 144 -47 163 16 42 332 295 371 297 6 0 30 -37 54 -82z m-2701
-75 c-1 -22 -23 -35 -82 -48 -79 -16 -148 -49 -230 -108 -75 -54 -132 -107
-175 -162 -31 -40 -103 -181 -103 -202 0 -6 -7 -16 -15 -23 -26 -21 41 148 85
215 97 149 266 280 413 320 58 15 107 19 107 8z m1774 -113 c42 -12 85 -23 96
-25 12 -2 29 -6 38 -9 9 -3 35 -8 57 -11 113 -17 106 -11 132 -110 12 -50 25
-103 28 -120 3 -16 10 -43 15 -60 22 -69 81 -326 78 -336 -2 -6 -9 13 -17 42
-7 30 -33 119 -58 199 -26 80 -56 185 -67 234 l-22 90 -39 12 c-34 10 -270 62
-315 69 -12 1 -76 -40 -100 -65 -5 -6 -123 -103 -129 -107 -1 -1 3 -33 9 -71
19 -102 7 -109 -18 -12 l-21 85 32 30 c87 82 208 185 217 185 5 0 43 -9 84
-20z m2061 -132 c227 -74 412 -278 475 -525 12 -49 24 -153 17 -153 -3 0 -12
33 -21 73 -34 150 -107 284 -216 395 -99 100 -212 163 -367 202 -32 8 -41 14
-36 26 7 18 55 13 148 -18z m-3624 -81 c-10 -9 -11 -8 -5 6 3 10 9 15 12 12 3
-3 0 -11 -7 -18z m1059 -159 c0 -18 -2 -20 -9 -8 -6 8 -7 18 -5 22 9 14 14 9
14 -14z"/>
<path d="M1038 1713 c-7 -14 -3 -658 4 -668 4 -6 33 -11 65 -10 l58 0 3 343 2
342 -64 0 c-36 0 -66 -3 -68 -7z"/>
<path d="M5071 1597 l4 -123 -41 29 c-77 54 -182 37 -239 -37 -69 -91 -62
-306 13 -389 56 -62 190 -61 247 2 l19 22 16 -33 c15 -33 28 -37 103 -29 9 1
12 76 12 341 l0 340 -69 0 -68 0 3 -123z m-21 -203 c23 -23 25 -31 25 -114 0
-84 -2 -92 -27 -116 -37 -38 -99 -38 -136 0 -25 25 -27 32 -27 115 0 80 2 92
24 115 39 42 97 41 141 0z"/>
<path d="M720 1530 c-77 -14 -136 -65 -161 -137 -8 -21 -13 -77 -13 -124 0
-112 28 -171 100 -212 45 -26 56 -27 134 -24 47 2 97 10 113 17 24 12 27 18
27 67 0 58 -5 61 -51 38 -69 -36 -164 -12 -180 46 -15 53 -9 143 11 177 34 55
69 61 179 31 15 -4 35 27 46 72 6 23 3 28 -22 34 -66 19 -135 24 -183 15z"/>
<path d="M1451 1527 c-45 -7 -62 -17 -101 -56 -56 -56 -70 -103 -66 -213 7
-145 90 -228 231 -228 155 0 237 88 237 253 0 96 -14 136 -67 189 -56 56 -128
73 -234 55z m138 -131 c23 -23 25 -33 26 -112 1 -81 -1 -88 -26 -115 -37 -40
-104 -41 -143 -3 -24 25 -26 33 -26 113 0 66 4 91 18 108 37 48 108 52 151 9z"/>
<path d="M1945 1523 c-71 -20 -105 -61 -105 -128 0 -42 5 -57 31 -88 17 -20
35 -37 40 -37 17 0 158 -73 162 -84 9 -22 -12 -56 -35 -57 -52 -3 -92 1 -140
16 -58 17 -66 15 -62 -17 1 -13 3 -35 3 -49 1 -22 7 -28 39 -36 21 -5 71 -11
112 -12 149 -4 223 54 215 169 -3 38 -10 51 -44 81 -23 20 -67 47 -98 59 -93
37 -118 71 -68 90 29 11 85 5 133 -16 l33 -14 21 46 c11 26 16 49 11 53 -38
32 -175 45 -248 24z"/>
<path d="M2457 1528 c-115 -24 -171 -108 -170 -258 0 -159 76 -239 224 -240
62 0 123 13 142 30 5 4 9 30 10 56 1 54 3 53 -78 31 -92 -26 -148 5 -161 90
-14 95 18 175 74 188 27 5 85 -4 124 -20 13 -5 20 5 36 47 l20 53 -41 13 c-52
17 -130 21 -180 10z"/>
<path d="M2863 1518 l-72 -20 15 -36 c9 -21 18 -42 20 -48 3 -7 21 -5 56 7 58
19 136 18 149 -2 15 -23 22 -60 13 -69 -5 -4 -46 -10 -91 -13 -107 -6 -164
-33 -191 -88 -24 -49 -20 -120 10 -162 52 -73 191 -77 266 -7 26 25 32 25 32
3 1 -32 23 -48 65 -48 l40 0 3 183 c2 163 0 188 -17 227 -18 41 -56 72 -101
83 -48 11 -133 7 -197 -10z m184 -300 c-6 -47 -30 -75 -71 -86 -66 -17 -103
11 -91 69 4 16 16 34 28 40 23 13 117 28 131 21 4 -3 6 -22 3 -44z"/>
<path d="M3962 1527 c-63 -15 -124 -77 -144 -147 -16 -60 -15 -153 3 -207 38
-117 195 -175 353 -129 l56 17 0 49 c0 28 -3 50 -7 50 -5 0 -26 -7 -49 -15
-52 -18 -143 -22 -171 -7 -26 14 -63 64 -63 85 0 24 22 27 175 27 l143 0 -2
59 c-4 97 -41 168 -107 201 -45 24 -126 31 -187 17z m133 -109 c15 -13 27 -35
28 -52 l2 -28 -83 0 c-46 0 -88 4 -94 10 -12 12 14 66 39 81 31 18 80 12 108
-11z"/>
<path d="M4596 1528 c-21 -6 -55 -27 -76 -48 l-37 -37 -9 41 c-8 36 -13 41
-39 43 -74 7 -70 20 -70 -239 0 -128 3 -238 7 -243 5 -9 41 -11 109 -6 14 1
17 20 18 142 1 101 5 148 16 168 18 35 70 61 122 61 l39 0 3 52 c1 28 4 55 6
59 3 4 -5 9 -18 13 -25 7 -20 7 -71 -6z"/>
<path d="M5425 1517 c-33 -10 -61 -20 -63 -22 -2 -1 7 -23 19 -47 l22 -45 47
17 c66 24 127 20 151 -9 40 -50 22 -67 -78 -74 -113 -7 -168 -34 -195 -95 -47
-106 19 -212 132 -212 63 0 109 15 141 46 l28 27 13 -29 c16 -38 21 -41 66
-39 l37 1 0 199 c0 196 -1 201 -24 232 -49 65 -182 88 -296 50z m191 -300 c-8
-49 -21 -66 -61 -83 -63 -26 -116 11 -101 70 10 39 77 67 140 58 27 -4 28 -6
22 -45z"/>
<path d="M3260 1517 c0 -15 170 -459 181 -472 6 -9 96 -12 130 -6 6 1 189 470
189 483 0 3 -30 5 -67 4 l-67 -1 -33 -90 c-18 -49 -44 -130 -60 -180 -16 -52
-29 -82 -31 -70 -5 26 -69 226 -94 292 l-19 51 -64 0 c-40 0 -65 -5 -65 -11z"/>
<path d="M5491 958 c-78 -28 -120 -96 -121 -191 0 -130 72 -201 199 -196 68 3
130 40 155 93 21 45 23 151 3 197 -18 43 -51 77 -85 90 -36 14 -122 18 -151 7z
m119 -98 c21 -21 23 -33 22 -115 -1 -41 -6 -54 -28 -73 -31 -27 -78 -23 -106
10 -27 30 -25 137 3 172 26 33 79 36 109 6z"/>
<path d="M6001 959 c-13 -5 -35 -21 -47 -34 -13 -14 -25 -25 -27 -25 -3 0 -7
14 -10 30 -6 27 -10 30 -47 30 l-40 0 0 -194 0 -194 52 2 52 1 2 119 c1 112 3
119 26 143 17 17 41 27 70 30 l45 5 2 47 c2 45 1 47 -26 48 -15 1 -39 -3 -52
-8z"/>
<path d="M6197 946 c-23 -11 -48 -32 -54 -46 -27 -54 -11 -131 35 -165 10 -9
8 -15 -11 -33 -27 -25 -26 -53 1 -84 8 -10 10 -18 4 -18 -6 0 -24 -12 -41 -26
-39 -33 -42 -80 -7 -121 31 -37 73 -49 161 -47 81 3 128 20 168 62 49 51 33
149 -28 172 -13 5 -58 11 -100 14 -113 6 -133 40 -30 49 100 8 148 53 146 138
-1 44 2 51 24 61 16 7 25 19 25 35 0 20 -5 23 -37 24 -21 0 -78 1 -126 3 -74
3 -95 0 -130 -18z m138 -67 c11 -17 8 -79 -5 -94 -18 -22 -77 -19 -90 4 -12
23 -13 71 -2 88 20 31 79 33 97 2z m38 -324 c25 -10 21 -42 -9 -61 -55 -36
-174 -18 -174 26 0 47 106 67 183 35z"/>
<path d="M5212 679 c-29 -11 -46 -53 -31 -80 16 -31 57 -43 85 -24 13 8 24 19
25 23 0 4 2 15 4 24 4 21 -19 54 -43 60 -10 3 -28 1 -40 -3z"/>
</g>
</svg>
